<svg width="24" height="24" viewBox="0 0 24 24" fill="none" xmlns="http://www.w3.org/2000/svg">
<rect x="0.6" y="0.6" width="22.8" height="22.8" rx="11.4" stroke="#E7000B" stroke-width="1.2"/>
<path d="M5.20709 10.4849C5.39462 10.2975 5.64893 10.1922 5.91409 10.1922C6.17926 10.1922 6.43357 10.2975 6.62109 10.4849L10.1571 14.0209L17.2271 6.94994C17.3199 6.85703 17.4302 6.78332 17.5515 6.73301C17.6728 6.6827 17.8029 6.65678 17.9342 6.65674C18.0656 6.65669 18.1957 6.68252 18.317 6.73274C18.4384 6.78296 18.5487 6.8566 18.6416 6.94944C18.7345 7.04229 18.8082 7.15252 18.8585 7.27385C18.9088 7.39519 18.9347 7.52524 18.9348 7.65659C18.9348 7.78794 18.909 7.91801 18.8588 8.03938C18.8086 8.16074 18.7349 8.27103 18.6421 8.36394L10.1571 16.8489L5.20709 11.8989C5.01962 11.7114 4.91431 11.4571 4.91431 11.1919C4.91431 10.9268 5.01962 10.6725 5.20709 10.4849Z" fill="#E7000B"/>
</svg>
