<svg width="32" height="32" viewBox="0 0 32 32" fill="none" xmlns="http://www.w3.org/2000/svg">
<rect x="0.75" y="0.75" width="30.5" height="30.5" rx="15.25" stroke="#585CE4" stroke-width="1.5"/>
<path d="M9.20697 14.4849C9.3945 14.2975 9.64881 14.1922 9.91397 14.1922C10.1791 14.1922 10.4334 14.2975 10.621 14.4849L14.157 18.0209L21.227 10.9499C21.3198 10.857 21.4301 10.7833 21.5514 10.733C21.6727 10.6827 21.8028 10.6568 21.9341 10.6567C22.0655 10.6567 22.1955 10.6825 22.3169 10.7327C22.4383 10.783 22.5486 10.8566 22.6415 10.9494C22.7344 11.0423 22.8081 11.1525 22.8584 11.2739C22.9087 11.3952 22.9346 11.5252 22.9347 11.6566C22.9347 11.7879 22.9089 11.918 22.8587 12.0394C22.8085 12.1607 22.7348 12.271 22.642 12.3639L14.157 20.8489L9.20697 15.8989C9.0195 15.7114 8.91418 15.4571 8.91418 15.1919C8.91418 14.9268 9.0195 14.6725 9.20697 14.4849Z" fill="#585CE4"/>
</svg>
