<svg width="55" height="55" viewBox="0 0 55 55" fill="none" xmlns="http://www.w3.org/2000/svg">
<g clip-path="url(#clip0_1_300)">
<path d="M11.9999 19.5834L13.6436 42.6045C13.7122 43.5624 14.1418 44.4585 14.8456 45.112C15.5494 45.7654 16.4749 46.1275 17.4352 46.125H36.9168C37.8772 46.1275 38.8027 45.7654 39.5065 45.112C40.2102 44.4585 40.6398 43.5624 40.7085 42.6045L42.3522 19.5834H12.0188H11.9999Z" stroke="#687183" stroke-width="2.7" stroke-linecap="round" stroke-linejoin="round"/>
<path d="M20.5311 19.5833C20.5311 16.4495 23.3749 12 27.1665 12C30.9582 12 33.802 16.4495 33.802 19.5833" stroke="#687183" stroke-width="2.7" stroke-linecap="round" stroke-linejoin="round"/>
<path d="M22.4268 38.5416C23.2097 39.4175 24.3226 40.4374 27.1663 40.4374C30.0101 40.4374 31.9059 38.7369 31.9059 36.6458C31.9059 34.5546 30.0101 33.802 27.1663 32.8541C24.3226 31.9062 23.3747 30.0672 23.3747 29.0624C23.3747 26.9694 25.2705 25.2708 27.1663 25.2708C29.0622 25.2708 30.0101 25.2708 31.9059 27.1666" stroke="#687183" stroke-width="2.7" stroke-linecap="round" stroke-linejoin="round"/>
</g>
<defs>
<clipPath id="clip0_1_300">
<rect width="55" height="55" fill="white"/>
</clipPath>
</defs>
</svg>
