<svg width="55" height="55" viewBox="0 0 55 55" fill="none" xmlns="http://www.w3.org/2000/svg">
<g clip-path="url(#clip0_1_310)">
<path d="M44 20.742V27.9142C40.7752 27.5942 37.7003 26.3943 35.1111 24.4454V32.4461C35.1106 34.6172 34.4986 36.7442 33.3452 38.5835C32.1918 40.4228 30.5437 41.8999 28.5896 42.8457C26.6356 43.7915 24.4546 44.1677 22.2966 43.9312C20.1386 43.6947 18.0909 42.855 16.3881 41.5084C14.6853 40.1617 13.3962 38.3626 12.6685 36.3171C11.9408 34.2717 11.804 32.0626 12.2738 29.9429C12.7435 27.8233 13.8008 25.8789 15.3244 24.3324C16.8481 22.7859 18.7766 21.7 20.8889 21.199V28.8902C20.2828 29.3448 19.803 29.9468 19.495 30.639C19.187 31.3312 19.061 32.0907 19.1291 32.8452C19.1971 33.5998 19.4569 34.3245 19.8837 34.9504C20.3106 35.5764 20.8903 36.0828 21.5679 36.4216C22.2455 36.7605 22.9985 36.9204 23.7553 36.8864C24.5121 36.8523 25.2477 36.6254 25.8921 36.2271C26.5366 35.8287 27.0685 35.2723 27.4374 34.6105C27.8063 33.9488 28 33.2037 28 32.4461V12H35.2587C35.6288 14.184 36.6691 16.1988 38.2353 17.7651C39.8016 19.3315 41.8162 20.3718 44 20.742Z" stroke="#687183" stroke-width="2.7" stroke-linecap="round" stroke-linejoin="round"/>
</g>
<defs>
<clipPath id="clip0_1_310">
<rect width="55" height="55" fill="white"/>
</clipPath>
</defs>
</svg>
