<svg width="27" height="38" viewBox="0 0 27 38" fill="none" xmlns="http://www.w3.org/2000/svg">
<path d="M10.6574 8.37493C10.6574 21.8412 10.1183 28.899 10.6574 29.375C14.4347 20.625 18.4962 7.25143 20.3534 4.70167C20.9867 3.83191 21.7713 3.07416 22.6741 2.46691C23.7873 1.78441 25.0593 1.1369 25.375 1.46065C25.2458 5.51892 17.9479 29.1493 17.6045 30.0103C17.0184 31.3579 16.149 32.5782 15.0492 33.5969C13.9494 34.6157 12.6423 35.4115 11.2076 35.9358C5.27586 37.3008 4.87708 35.1553 4.1257 33.9513C2.37184 30.271 1.02046 8.99618 1.458 6.62492C1.5503 5.70967 1.722 3.38566 6.05678 3.12491C10.4119 2.50541 10.759 5.58192 10.6574 8.37493Z" stroke="#687183" stroke-width="2.75" stroke-linecap="round" stroke-linejoin="round"/>
</svg>
