<svg width="40" height="40" viewBox="0 0 40 40" fill="none" xmlns="http://www.w3.org/2000/svg">
<rect width="40" height="40" rx="20" fill="white"/>
<path d="M21.1847 14.1545C21.1847 14.3833 21.1847 15.1293 21.1847 16.1892H24.8286L24.4335 19.4374H21.1847C21.1847 24.4469 21.1847 31.1598 21.1847 31.1598H16.8725C16.8725 31.1598 16.8725 24.5357 16.8725 19.4374H14.6255V16.1892H16.8725C16.8725 14.901 16.8725 13.985 16.8725 13.7299C16.8725 12.5148 16.7809 11.9382 17.2972 10.9966C17.8138 10.055 19.271 8.81041 21.7912 8.84037C24.3121 8.87143 25.3746 9.11394 25.3746 9.11394L24.8286 12.5758C24.8286 12.5758 23.2189 12.1508 22.4288 12.3022C21.6397 12.4538 21.1847 12.9398 21.1847 14.1545Z" fill="#171717"/>
</svg>
