<svg width="197" height="37" viewBox="0 0 197 37" fill="none" xmlns="http://www.w3.org/2000/svg">
<path d="M8.27545 2.97467C8.35619 3.38607 8.55228 3.77824 8.8714 4.09352C9.50579 4.72791 10.4401 4.8894 11.2206 4.57028C11.482 4.46262 11.7281 4.30498 11.9396 4.09352C12.0357 3.9974 12.1164 3.89359 12.1895 3.78593C12.2126 3.75517 12.2318 3.72057 12.251 3.68596C12.2741 3.64752 12.3048 3.60907 12.3241 3.56677C12.3202 3.56677 12.3125 3.57062 12.3087 3.57446C12.747 2.75551 12.6316 1.71356 11.9396 1.02149C11.2475 0.329422 10.2094 0.214077 9.3866 0.652389C9.3866 0.648544 9.39045 0.640854 9.39429 0.637009C9.352 0.660078 9.3174 0.686992 9.2751 0.710061C9.2405 0.729285 9.20974 0.74851 9.17514 0.771579C9.06748 0.84463 8.96367 0.925372 8.86755 1.02149C8.65609 1.23296 8.49845 1.47903 8.39079 1.74048C8.28314 2.00193 8.23315 2.27875 8.23315 2.55558C8.23315 2.694 8.24469 2.83241 8.2716 2.97082L8.27545 2.97467Z" fill="#171717"/>
<path d="M13.5699 8.79611L20.3407 15.5669C21.1866 16.4127 22.563 16.4127 23.4089 15.5669C23.4742 15.5015 23.5319 15.4361 23.5857 15.3669C23.5819 15.3669 23.5742 15.3669 23.5704 15.3708C24.2432 14.5211 24.1971 13.2869 23.4089 12.4987L16.6381 5.72793C16.0191 5.10891 15.1233 4.94743 14.3504 5.23195C14.3504 5.23195 14.3504 5.23195 14.3504 5.2281C14.3428 5.2281 14.3312 5.23579 14.3235 5.23964C14.2928 5.25117 14.262 5.26655 14.2313 5.27808C14.1274 5.32422 14.0236 5.37805 13.9237 5.43957C13.9083 5.4511 13.8929 5.46264 13.8737 5.47417C13.766 5.54722 13.6622 5.63181 13.5623 5.72793C13.1393 6.15086 12.9279 6.70836 12.9279 7.26202C12.9279 7.53885 12.9817 7.81568 13.0855 8.07712C13.1932 8.33857 13.3508 8.58464 13.5623 8.79611H13.5699Z" fill="#171717"/>
<path d="M22.2271 7.25012C22.65 7.67305 23.2075 7.88452 23.7612 7.88452C24.038 7.88452 24.3148 7.83069 24.5763 7.72688C24.8377 7.61923 25.0838 7.46159 25.2953 7.25012C25.3914 7.154 25.4721 7.05019 25.5452 6.94638C25.5721 6.90793 25.5913 6.86948 25.6144 6.83103C25.6375 6.78874 25.6682 6.75029 25.6913 6.708C25.6875 6.708 25.6836 6.708 25.6759 6.71184C26.0989 5.89289 25.9797 4.87017 25.2914 4.18194L21.7388 0.629315C21.0544 -0.0550661 20.0279 -0.178101 19.2089 0.244831C19.2089 0.240986 19.2089 0.237141 19.2128 0.229452C19.1705 0.252521 19.132 0.279435 19.0897 0.306348C19.0513 0.329417 19.0128 0.352487 18.9744 0.375556C18.8667 0.448607 18.7629 0.529349 18.6706 0.62547C18.3515 0.944591 18.1554 1.33676 18.0747 1.74432C17.944 2.4287 18.14 3.16306 18.6706 3.69365L22.2271 7.25012Z" fill="#171717"/>
<path d="M36.7482 19.2073C36.7482 19.2073 36.7559 19.2073 36.7636 19.2111C36.7405 19.1688 36.7136 19.1304 36.6867 19.0881C36.6636 19.0496 36.6405 19.0112 36.6175 18.9727C36.5444 18.8651 36.4637 18.7613 36.3675 18.6652C35.5217 17.8193 34.1452 17.8193 33.2994 18.6652L29.7429 22.2216C29.2123 22.7522 29.0162 23.4866 29.1469 24.171C29.2277 24.5824 29.4238 24.9745 29.7429 25.2898C29.839 25.3859 29.9428 25.4667 30.0466 25.5397C30.0851 25.5666 30.1235 25.5859 30.162 25.6089C30.2043 25.632 30.2427 25.6628 30.285 25.6858C30.285 25.682 30.285 25.6781 30.2812 25.6704C31.0963 26.0934 32.1228 25.9742 32.8111 25.286L36.3675 21.7295C37.0519 21.0451 37.175 20.0185 36.752 19.1996L36.7482 19.2073Z" fill="#171717"/>
<path d="M20.8286 22.2911C20.9093 22.7025 21.1054 23.0947 21.4245 23.41C21.4899 23.4753 21.5553 23.5291 21.6245 23.5868C21.6245 23.583 21.6245 23.5753 21.6206 23.5714C22.4703 24.2443 23.7045 24.1981 24.4927 23.41L31.2635 16.6392C31.8825 16.0202 32.044 15.1243 31.7595 14.3515C31.7595 14.3515 31.7595 14.3515 31.7633 14.3515C31.7633 14.3438 31.7556 14.3323 31.7518 14.3246C31.7402 14.2938 31.7248 14.2631 31.7133 14.2323C31.6672 14.1285 31.6133 14.0247 31.5518 13.9247C31.5403 13.9094 31.5288 13.894 31.5172 13.8748C31.4442 13.7671 31.3596 13.6633 31.2635 13.5633C30.9443 13.2442 30.5522 13.0481 30.1446 12.9674C29.4602 12.8367 28.7259 13.0327 28.1953 13.5633L21.4245 20.3341C20.8939 20.8647 20.6979 21.599 20.8286 22.2834V22.2911Z" fill="#171717"/>
<path d="M32.8948 11.9369C32.991 12.033 33.0948 12.1138 33.2024 12.1868C33.2332 12.2099 33.2678 12.2291 33.3024 12.2483C33.3408 12.2714 33.3793 12.3021 33.4216 12.3214C33.4216 12.3175 33.4177 12.3098 33.4139 12.306C34.2328 12.7443 35.2748 12.629 35.9669 11.9369C36.6589 11.2448 36.7743 10.2067 36.336 9.38392C36.3398 9.38392 36.3475 9.38776 36.3513 9.39161C36.3283 9.34932 36.3014 9.31471 36.2783 9.27242C36.2591 9.23782 36.2398 9.20706 36.2168 9.17245C36.1437 9.0648 36.063 8.96099 35.9669 8.86487C35.121 8.019 33.7445 8.019 32.8987 8.86487C32.0528 9.71073 32.0528 11.0872 32.8987 11.933L32.8948 11.9369Z" fill="#171717"/>
<path d="M28.1195 32.8957C27.4851 32.2613 26.5508 32.0998 25.7703 32.419C25.5088 32.5266 25.2627 32.6843 25.0513 32.8957C24.9552 32.9919 24.8744 33.0957 24.8014 33.2033C24.7783 33.2341 24.7591 33.2687 24.7398 33.3033C24.7168 33.3417 24.686 33.3802 24.6668 33.4225C24.6706 33.4225 24.6783 33.4186 24.6822 33.4148C24.2439 34.2337 24.3592 35.2757 25.0513 35.9678C25.7433 36.6598 26.7815 36.7752 27.6042 36.3369C27.6042 36.3407 27.6004 36.3484 27.5966 36.3522C27.6389 36.3292 27.6735 36.3023 27.7157 36.2792C27.7504 36.26 27.7811 36.2407 27.8157 36.2177C27.9234 36.1446 28.0272 36.0639 28.1233 35.9678C28.9692 35.1219 28.9692 33.7454 28.1233 32.8996L28.1195 32.8957Z" fill="#171717"/>
<path d="M23.4215 28.1971L16.6507 21.4264C16.3316 21.1072 15.9395 20.9112 15.5319 20.8304C15.2589 20.7766 14.9782 20.7766 14.7014 20.8304C14.29 20.9112 13.8978 21.1072 13.5826 21.4264C13.5172 21.4917 13.4634 21.5571 13.4057 21.6263C13.4096 21.6263 13.4172 21.6263 13.4211 21.6224C12.7482 22.4722 12.7944 23.7063 13.5826 24.4945L20.3533 31.2653C20.9723 31.8843 21.8682 32.0458 22.641 31.7613C22.641 31.7613 22.641 31.7613 22.641 31.7651C22.6487 31.7651 22.6602 31.7574 22.6679 31.7536C22.6987 31.7421 22.7294 31.7267 22.7602 31.7151C22.864 31.669 22.9678 31.6152 23.0678 31.5537C23.0832 31.5421 23.0985 31.5306 23.1178 31.5191C23.2254 31.446 23.3292 31.3614 23.4292 31.2653C23.7483 30.9462 23.9444 30.554 24.0251 30.1464C24.1059 29.7351 24.0636 29.3083 23.906 28.9161C23.7983 28.6546 23.6407 28.4086 23.4292 28.1971H23.4215Z" fill="#171717"/>
<path d="M14.767 29.742C14.2364 29.2115 13.502 29.0154 12.8176 29.1461C12.4062 29.2268 12.0141 29.4229 11.6988 29.742C11.6027 29.8382 11.5219 29.942 11.4489 30.0496C11.422 30.0881 11.4027 30.1265 11.3797 30.165C11.3566 30.2073 11.3258 30.2457 11.3028 30.288C11.3066 30.288 11.3105 30.288 11.3182 30.2842C10.8952 31.0993 11.0144 32.1258 11.7026 32.8141L15.2591 36.3705C15.9435 37.0549 16.9701 37.178 17.789 36.755C17.789 36.7589 17.789 36.7627 17.7852 36.7704C17.8275 36.7473 17.8659 36.7204 17.9082 36.6935C17.9466 36.6704 17.9851 36.6474 18.0235 36.6243C18.1312 36.5512 18.235 36.4705 18.3311 36.3744C19.177 35.5285 19.177 34.1521 18.3311 33.3062L14.7747 29.7497L14.767 29.742Z" fill="#171717"/>
<path d="M4.68824 26.174C4.6075 25.7626 4.41142 25.3705 4.0923 25.0552C3.99617 24.9591 3.89236 24.8783 3.78471 24.8053C3.75395 24.7822 3.71935 24.763 3.68474 24.7438C3.64629 24.7207 3.60785 24.6899 3.56555 24.6707C3.56555 24.6745 3.5694 24.6822 3.57324 24.6861C2.75429 24.2478 1.71234 24.3631 1.02027 25.0552C0.328202 25.7473 0.212857 26.7854 0.651168 27.6082C0.647323 27.6082 0.639633 27.6043 0.635789 27.6005C0.658858 27.6428 0.685771 27.6774 0.70884 27.7197C0.728065 27.7543 0.747289 27.785 0.770358 27.8196C0.84341 27.9273 0.924151 28.0311 1.02027 28.1272C1.86614 28.9731 3.24259 28.9731 4.08845 28.1272C4.51138 27.7043 4.72285 27.1468 4.72285 26.5931C4.72285 26.4547 4.71131 26.3163 4.6844 26.1779L4.68824 26.174Z" fill="#171717"/>
<path d="M16.0447 15.9318C16.1524 15.6703 16.2024 15.3935 16.2024 15.1167C16.2024 14.9782 16.1908 14.8398 16.1639 14.7014C16.0832 14.29 15.8871 13.8978 15.568 13.5826C15.5026 13.5172 15.4372 13.4634 15.368 13.4057C15.368 13.4096 15.368 13.4172 15.3719 13.4211C14.5222 12.7482 13.288 12.7944 12.4998 13.5826L5.72903 20.3533C5.11001 20.9723 4.94853 21.8682 5.23305 22.641C5.23305 22.641 5.23305 22.641 5.2292 22.641C5.2292 22.6487 5.23689 22.6602 5.24073 22.6679C5.25227 22.6987 5.26765 22.7294 5.27918 22.7602C5.32532 22.864 5.37915 22.9678 5.44067 23.0678C5.4522 23.0832 5.46374 23.0985 5.47527 23.1139C5.54832 23.2216 5.63291 23.3254 5.72903 23.4253C6.57489 24.2712 7.95134 24.2712 8.79721 23.4253L15.568 16.6546C15.7794 16.4431 15.9371 16.1971 16.0447 15.9356V15.9318Z" fill="#171717"/>
<path d="M0.306348 17.9C0.329417 17.9385 0.352486 17.9769 0.375555 18.0154C0.448607 18.123 0.529349 18.2268 0.62547 18.323C0.944591 18.6421 1.33676 18.8382 1.74432 18.9189C1.88273 18.9458 2.02114 18.9574 2.15956 18.9574C2.43639 18.9574 2.71322 18.9035 2.97466 18.7997C3.23611 18.6921 3.48218 18.5344 3.69365 18.323L7.25012 14.7665C8.09599 13.9206 8.09599 12.5442 7.25012 11.6983C7.154 11.6022 7.05019 11.5214 6.94253 11.4484C6.90409 11.4215 6.86564 11.4022 6.82719 11.3792C6.7849 11.3561 6.74645 11.3254 6.70415 11.3023C6.70415 11.3061 6.70415 11.31 6.708 11.3177C5.89289 10.8947 4.86632 11.0139 4.1781 11.7021L0.629315 15.2548C-0.0550661 15.9392 -0.178101 16.9657 0.244831 17.7847C0.240986 17.7847 0.237141 17.7847 0.229452 17.7808C0.252521 17.8231 0.279435 17.8616 0.306348 17.9039V17.9Z" fill="#171717"/>
<path d="M49.4184 28.5V9.47129H51.9159L58.8138 23.7825L65.6721 9.47129H68.196V28.4868H65.5796V15.4706L59.4349 28.5H58.1795L52.0216 15.4706V28.5H49.4184ZM75.9287 28.8964C74.8715 28.8964 73.9862 28.7026 73.2726 28.315C72.559 27.9186 72.0172 27.3988 71.6472 26.7557C71.286 26.1038 71.1054 25.3902 71.1054 24.615C71.1054 23.8926 71.2332 23.2583 71.4887 22.7121C71.7441 22.1659 72.123 21.7034 72.6251 21.3246C73.1272 20.937 73.7439 20.6242 74.4751 20.3864C75.1094 20.2014 75.8274 20.0384 76.6291 19.8974C77.4307 19.7565 78.272 19.6243 79.153 19.501C80.0428 19.3777 80.9237 19.2543 81.7959 19.131L80.7916 19.686C80.8092 18.5672 80.5714 17.7391 80.078 17.2017C79.5935 16.6555 78.7566 16.3824 77.5673 16.3824C76.8185 16.3824 76.1313 16.5586 75.5058 16.911C74.8804 17.2546 74.4443 17.8272 74.1976 18.6289L71.6208 17.836C71.9732 16.6115 72.6427 15.638 73.6294 14.9156C74.6249 14.1932 75.9463 13.832 77.5937 13.832C78.8711 13.832 79.9811 14.0523 80.9237 14.4928C81.8752 14.9244 82.5711 15.6116 83.0116 16.5542C83.2407 17.0211 83.3816 17.5144 83.4345 18.0342C83.4873 18.554 83.5138 19.1134 83.5138 19.7124V28.5H81.0691V25.236L81.5448 25.6589C80.9546 26.7513 80.2013 27.5662 79.2852 28.1036C78.3778 28.6321 77.2589 28.8964 75.9287 28.8964ZM76.4176 26.6368C77.2017 26.6368 77.8756 26.5002 78.4394 26.2271C79.0032 25.9452 79.4569 25.5884 79.8005 25.1568C80.1441 24.7251 80.3687 24.2758 80.4744 23.8089C80.6242 23.386 80.7079 22.9103 80.7255 22.3817C80.7519 21.8532 80.7652 21.4303 80.7652 21.1132L81.6637 21.4435C80.7916 21.5757 79.9987 21.6946 79.2852 21.8003C78.5716 21.906 77.9241 22.0117 77.3426 22.1175C76.77 22.2144 76.2591 22.3333 75.8098 22.4742C75.431 22.6064 75.0918 22.765 74.7923 22.95C74.5015 23.135 74.2681 23.3596 74.0919 23.6239C73.9245 23.8882 73.8408 24.2097 73.8408 24.5885C73.8408 24.9585 73.9333 25.3021 74.1183 25.6193C74.3033 25.9276 74.5852 26.1743 74.964 26.3593C75.3429 26.5443 75.8274 26.6368 76.4176 26.6368ZM85.3594 28.5L90.698 21.2849L85.4784 14.2285H88.7555L92.3102 19.131L95.8252 14.2285H99.1024L93.8827 21.2849L99.2345 28.5H95.9442L92.3102 23.4389L88.6498 28.5H85.3594ZM104.947 28.5L99.7672 14.2285H102.555L106.348 25.0378L110.141 14.2285H112.929L107.749 28.5H104.947ZM121.123 28.8964C119.705 28.8964 118.458 28.5881 117.383 27.9714C116.317 27.3459 115.485 26.4782 114.886 25.3682C114.296 24.2494 114.001 22.9544 114.001 21.4832C114.001 19.9239 114.291 18.5716 114.873 17.4263C115.463 16.2811 116.282 15.3957 117.331 14.7703C118.379 14.1448 119.599 13.832 120.991 13.832C122.445 13.832 123.682 14.1712 124.704 14.8495C125.726 15.5191 126.488 16.4749 126.99 17.7171C127.501 18.9592 127.704 20.4348 127.598 22.1439H124.836V21.1396C124.819 19.4834 124.502 18.2589 123.885 17.466C123.277 16.6731 122.348 16.2767 121.097 16.2767C119.714 16.2767 118.674 16.7128 117.978 17.5849C117.282 18.4571 116.934 19.7168 116.934 21.3642C116.934 22.9323 117.282 24.1481 117.978 25.0114C118.674 25.8659 119.678 26.2932 120.991 26.2932C121.854 26.2932 122.599 26.0994 123.224 25.7118C123.859 25.3153 124.352 24.7515 124.704 24.0203L127.413 24.8793C126.858 26.1566 126.017 27.1477 124.889 27.8525C123.762 28.5485 122.506 28.8964 121.123 28.8964ZM116.036 22.1439V19.9899H126.224V22.1439H116.036ZM140.192 28.5V21.4832C140.192 20.9282 140.144 20.3599 140.047 19.7785C139.959 19.1883 139.783 18.6421 139.518 18.1399C139.263 17.6378 138.897 17.2325 138.422 16.9242C137.955 16.6159 137.342 16.4617 136.585 16.4617C136.091 16.4617 135.625 16.5454 135.184 16.7128C134.744 16.8713 134.356 17.1312 134.021 17.4924C133.695 17.8536 133.435 18.3293 133.242 18.9196C133.057 19.5098 132.964 20.2278 132.964 21.0735L131.246 20.426C131.246 19.131 131.488 17.9902 131.973 17.0035C132.457 16.008 133.153 15.2328 134.061 14.6778C134.968 14.1228 136.065 13.8452 137.351 13.8452C138.338 13.8452 139.166 14.0038 139.836 14.321C140.505 14.6381 141.047 15.0566 141.461 15.5763C141.884 16.0873 142.205 16.6467 142.426 17.2546C142.646 17.8624 142.796 18.4571 142.875 19.0385C142.954 19.6199 142.994 20.1309 142.994 20.5714V28.5H140.192ZM130.163 28.5V14.2285H132.634V18.3514H132.964V28.5H130.163ZM154.602 28.5C153.704 28.6762 152.823 28.7511 151.959 28.7246C151.096 28.6982 150.325 28.5308 149.647 28.2225C148.968 27.9142 148.457 27.4296 148.114 26.7689C147.806 26.1787 147.638 25.5796 147.612 24.9718C147.594 24.3551 147.585 23.6591 147.585 22.8839V10.2641H150.36V22.7517C150.36 23.3244 150.365 23.8221 150.374 24.245C150.391 24.6678 150.484 25.0246 150.651 25.3153C150.968 25.8615 151.47 26.1743 152.158 26.2536C152.853 26.324 153.668 26.2932 154.602 26.1611V28.5ZM144.85 16.4485V14.2285H154.602V16.4485H144.85ZM163.163 28.8964C161.736 28.8964 160.499 28.5749 159.45 27.9318C158.402 27.2887 157.591 26.4033 157.019 25.2757C156.455 24.1393 156.173 22.831 156.173 21.351C156.173 19.8622 156.464 18.554 157.045 17.4263C157.627 16.2899 158.442 15.409 159.49 14.7835C160.538 14.1492 161.763 13.832 163.163 13.832C164.591 13.832 165.828 14.1536 166.877 14.7967C167.925 15.4398 168.736 16.3251 169.308 17.4528C169.881 18.5804 170.167 19.8798 170.167 21.351C170.167 22.8398 169.876 24.1525 169.295 25.2889C168.722 26.4165 167.912 27.3019 166.863 27.945C165.815 28.5793 164.582 28.8964 163.163 28.8964ZM163.163 26.2932C164.529 26.2932 165.546 25.8351 166.216 24.9189C166.894 23.9939 167.233 22.8046 167.233 21.351C167.233 19.8622 166.89 18.6729 166.203 17.7831C165.524 16.8846 164.511 16.4353 163.163 16.4353C162.238 16.4353 161.476 16.6467 160.877 17.0696C160.278 17.4836 159.833 18.0606 159.543 18.8006C159.252 19.5318 159.107 20.382 159.107 21.351C159.107 22.8486 159.45 24.0468 160.137 24.9453C160.825 25.8439 161.833 26.2932 163.163 26.2932ZM173.071 28.5V14.2285H175.529V17.6906L175.185 17.2413C175.361 16.7832 175.59 16.3648 175.872 15.986C176.154 15.5984 176.48 15.2812 176.85 15.0345C177.211 14.7703 177.612 14.5676 178.053 14.4267C178.502 14.2769 178.96 14.1888 179.427 14.1624C179.894 14.1272 180.343 14.1492 180.775 14.2285V16.8185C180.308 16.6952 179.788 16.6599 179.216 16.7128C178.652 16.7656 178.132 16.9462 177.656 17.2546C177.207 17.5453 176.85 17.8977 176.586 18.3117C176.33 18.7258 176.145 19.1883 176.031 19.6992C175.916 20.2014 175.859 20.7343 175.859 21.2982V28.5H173.071ZM184.859 34.8429L187.621 27.3239L187.661 29.5439L181.437 14.2285H184.318L188.969 26.0553H188.123L192.563 14.2285H195.365L187.489 34.8429H184.859Z" fill="#171717"/>
</svg>
