<svg width="1280" height="551" viewBox="0 0 1280 551" fill="none" xmlns="http://www.w3.org/2000/svg">
<g clip-path="url(#clip0_2027_8049)">
<rect width="1280" height="551" rx="30" fill="#171717"/>
<g opacity="0.5" filter="url(#filter0_f_2027_8049)">
<circle cx="182.194" cy="498.065" r="112" fill="#585CE4"/>
</g>
<g opacity="0.5" filter="url(#filter1_f_2027_8049)">
<circle cx="1094.71" cy="23.2261" r="112" fill="#585CE4"/>
</g>
<g opacity="0.6" clip-path="url(#clip1_2027_8049)">
<mask id="mask0_2027_8049" style="mask-type:alpha" maskUnits="userSpaceOnUse" x="-96" y="0" width="1487" height="1487">
<rect width="1486.45" height="1235.61" transform="translate(-96)" fill="url(#paint0_radial_2027_8049)"/>
</mask>
<g mask="url(#mask0_2027_8049)">
<g clip-path="url(#clip2_2027_8049)">
<mask id="path-6-inside-1_2027_8049" fill="white">
<path d="M-46.4517 0H52.6451V99.0968H-46.4517V0Z"/>
</mask>
<path d="M52.6451 99.0968V100.129H53.6774V99.0968H52.6451ZM52.6451 0H51.6129V99.0968H52.6451H53.6774V0H52.6451ZM52.6451 99.0968V98.0645H-46.4517V99.0968V100.129H52.6451V99.0968Z" fill="#D0D5DD" fill-opacity="0.2" mask="url(#path-6-inside-1_2027_8049)"/>
<mask id="path-8-inside-2_2027_8049" fill="white">
<path d="M52.645 0H151.742V99.0968H52.645V0Z"/>
</mask>
<path d="M151.742 99.0968V100.129H152.774V99.0968H151.742ZM151.742 0H150.71V99.0968H151.742H152.774V0H151.742ZM151.742 99.0968V98.0645H52.645V99.0968V100.129H151.742V99.0968Z" fill="#D0D5DD" fill-opacity="0.2" mask="url(#path-8-inside-2_2027_8049)"/>
<mask id="path-10-inside-3_2027_8049" fill="white">
<path d="M151.742 0H250.839V99.0968H151.742V0Z"/>
</mask>
<path d="M250.839 99.0968V100.129H251.871V99.0968H250.839ZM250.839 0H249.806V99.0968H250.839H251.871V0H250.839ZM250.839 99.0968V98.0645H151.742V99.0968V100.129H250.839V99.0968Z" fill="#D0D5DD" fill-opacity="0.2" mask="url(#path-10-inside-3_2027_8049)"/>
<mask id="path-12-inside-4_2027_8049" fill="white">
<path d="M250.839 0H349.936V99.0968H250.839V0Z"/>
</mask>
<path d="M349.936 99.0968V100.129H350.968V99.0968H349.936ZM349.936 0H348.903V99.0968H349.936H350.968V0H349.936ZM349.936 99.0968V98.0645H250.839V99.0968V100.129H349.936V99.0968Z" fill="#D0D5DD" fill-opacity="0.2" mask="url(#path-12-inside-4_2027_8049)"/>
<mask id="path-14-inside-5_2027_8049" fill="white">
<path d="M349.936 0H449.032V99.0968H349.936V0Z"/>
</mask>
<path d="M449.032 99.0968V100.129H450.065V99.0968H449.032ZM449.032 0H448V99.0968H449.032H450.065V0H449.032ZM449.032 99.0968V98.0645H349.936V99.0968V100.129H449.032V99.0968Z" fill="#D0D5DD" fill-opacity="0.2" mask="url(#path-14-inside-5_2027_8049)"/>
<mask id="path-16-inside-6_2027_8049" fill="white">
<path d="M449.032 0H548.129V99.0968H449.032V0Z"/>
</mask>
<path d="M548.129 99.0968V100.129H549.161V99.0968H548.129ZM548.129 0H547.097V99.0968H548.129H549.161V0H548.129ZM548.129 99.0968V98.0645H449.032V99.0968V100.129H548.129V99.0968Z" fill="#D0D5DD" fill-opacity="0.2" mask="url(#path-16-inside-6_2027_8049)"/>
<mask id="path-18-inside-7_2027_8049" fill="white">
<path d="M548.129 0H647.226V99.0968H548.129V0Z"/>
</mask>
<path d="M647.226 99.0968V100.129H648.258V99.0968H647.226ZM647.226 0H646.193V99.0968H647.226H648.258V0H647.226ZM647.226 99.0968V98.0645H548.129V99.0968V100.129H647.226V99.0968Z" fill="#D0D5DD" fill-opacity="0.2" mask="url(#path-18-inside-7_2027_8049)"/>
<mask id="path-20-inside-8_2027_8049" fill="white">
<path d="M647.226 0H746.322V99.0968H647.226V0Z"/>
</mask>
<path d="M746.322 99.0968V100.129H747.355V99.0968H746.322ZM746.322 0H745.29V99.0968H746.322H747.355V0H746.322ZM746.322 99.0968V98.0645H647.226V99.0968V100.129H746.322V99.0968Z" fill="#D0D5DD" fill-opacity="0.2" mask="url(#path-20-inside-8_2027_8049)"/>
<mask id="path-22-inside-9_2027_8049" fill="white">
<path d="M746.322 0H845.419V99.0968H746.322V0Z"/>
</mask>
<path d="M845.419 99.0968V100.129H846.451V99.0968H845.419ZM845.419 0H844.387V99.0968H845.419H846.451V0H845.419ZM845.419 99.0968V98.0645H746.322V99.0968V100.129H845.419V99.0968Z" fill="#D0D5DD" fill-opacity="0.2" mask="url(#path-22-inside-9_2027_8049)"/>
<mask id="path-24-inside-10_2027_8049" fill="white">
<path d="M845.419 0H944.516V99.0968H845.419V0Z"/>
</mask>
<path d="M944.516 99.0968V100.129H945.548V99.0968H944.516ZM944.516 0H943.484V99.0968H944.516H945.548V0H944.516ZM944.516 99.0968V98.0645H845.419V99.0968V100.129H944.516V99.0968Z" fill="#D0D5DD" fill-opacity="0.2" mask="url(#path-24-inside-10_2027_8049)"/>
<mask id="path-26-inside-11_2027_8049" fill="white">
<path d="M944.516 0H1043.61V99.0968H944.516V0Z"/>
</mask>
<path d="M1043.61 99.0968V100.129H1044.65V99.0968H1043.61ZM1043.61 0H1042.58V99.0968H1043.61H1044.65V0H1043.61ZM1043.61 99.0968V98.0645H944.516V99.0968V100.129H1043.61V99.0968Z" fill="#D0D5DD" fill-opacity="0.2" mask="url(#path-26-inside-11_2027_8049)"/>
<mask id="path-28-inside-12_2027_8049" fill="white">
<path d="M1043.61 0H1142.71V99.0968H1043.61V0Z"/>
</mask>
<path d="M1142.71 99.0968V100.129H1143.74V99.0968H1142.71ZM1142.71 0H1141.68V99.0968H1142.71H1143.74V0H1142.71ZM1142.71 99.0968V98.0645H1043.61V99.0968V100.129H1142.71V99.0968Z" fill="#D0D5DD" fill-opacity="0.2" mask="url(#path-28-inside-12_2027_8049)"/>
<mask id="path-30-inside-13_2027_8049" fill="white">
<path d="M1142.71 0H1241.81V99.0968H1142.71V0Z"/>
</mask>
<path d="M1241.81 99.0968V100.129H1242.84V99.0968H1241.81ZM1241.81 0H1240.77V99.0968H1241.81H1242.84V0H1241.81ZM1241.81 99.0968V98.0645H1142.71V99.0968V100.129H1241.81V99.0968Z" fill="#D0D5DD" fill-opacity="0.2" mask="url(#path-30-inside-13_2027_8049)"/>
<mask id="path-32-inside-14_2027_8049" fill="white">
<path d="M1241.81 0H1340.9V99.0968H1241.81V0Z"/>
</mask>
<path d="M1340.9 99.0968V100.129H1341.94V99.0968H1340.9ZM1340.9 0H1339.87V99.0968H1340.9H1341.94V0H1340.9ZM1340.9 99.0968V98.0645H1241.81V99.0968V100.129H1340.9V99.0968Z" fill="#D0D5DD" fill-opacity="0.2" mask="url(#path-32-inside-14_2027_8049)"/>
<mask id="path-34-inside-15_2027_8049" fill="white">
<path d="M-46.4517 99.0967H52.6451V198.193H-46.4517V99.0967Z"/>
</mask>
<path d="M52.6451 198.193V199.226H53.6774V198.193H52.6451ZM52.6451 99.0967H51.6129V198.193H52.6451H53.6774V99.0967H52.6451ZM52.6451 198.193V197.161H-46.4517V198.193V199.226H52.6451V198.193Z" fill="#D0D5DD" fill-opacity="0.2" mask="url(#path-34-inside-15_2027_8049)"/>
<mask id="path-36-inside-16_2027_8049" fill="white">
<path d="M52.645 99.0967H151.742V198.193H52.645V99.0967Z"/>
</mask>
<path d="M151.742 198.193V199.226H152.774V198.193H151.742ZM151.742 99.0967H150.71V198.193H151.742H152.774V99.0967H151.742ZM151.742 198.193V197.161H52.645V198.193V199.226H151.742V198.193Z" fill="#D0D5DD" fill-opacity="0.2" mask="url(#path-36-inside-16_2027_8049)"/>
<mask id="path-38-inside-17_2027_8049" fill="white">
<path d="M151.742 99.0967H250.839V198.193H151.742V99.0967Z"/>
</mask>
<path d="M151.742 99.0967H250.839V198.193H151.742V99.0967Z" fill="#F2F4F7" fill-opacity="0.01"/>
<path d="M250.839 198.193V199.226H251.871V198.193H250.839ZM250.839 99.0967H249.806V198.193H250.839H251.871V99.0967H250.839ZM250.839 198.193V197.161H151.742V198.193V199.226H250.839V198.193Z" fill="#D0D5DD" fill-opacity="0.2" mask="url(#path-38-inside-17_2027_8049)"/>
<mask id="path-40-inside-18_2027_8049" fill="white">
<path d="M250.839 99.0967H349.936V198.193H250.839V99.0967Z"/>
</mask>
<path d="M349.936 198.193V199.226H350.968V198.193H349.936ZM349.936 99.0967H348.903V198.193H349.936H350.968V99.0967H349.936ZM349.936 198.193V197.161H250.839V198.193V199.226H349.936V198.193Z" fill="#D0D5DD" fill-opacity="0.2" mask="url(#path-40-inside-18_2027_8049)"/>
<mask id="path-42-inside-19_2027_8049" fill="white">
<path d="M349.936 99.0967H449.032V198.193H349.936V99.0967Z"/>
</mask>
<path d="M449.032 198.193V199.226H450.065V198.193H449.032ZM449.032 99.0967H448V198.193H449.032H450.065V99.0967H449.032ZM449.032 198.193V197.161H349.936V198.193V199.226H449.032V198.193Z" fill="#D0D5DD" fill-opacity="0.2" mask="url(#path-42-inside-19_2027_8049)"/>
<mask id="path-44-inside-20_2027_8049" fill="white">
<path d="M449.032 99.0967H548.129V198.193H449.032V99.0967Z"/>
</mask>
<path d="M548.129 198.193V199.226H549.161V198.193H548.129ZM548.129 99.0967H547.097V198.193H548.129H549.161V99.0967H548.129ZM548.129 198.193V197.161H449.032V198.193V199.226H548.129V198.193Z" fill="#D0D5DD" fill-opacity="0.2" mask="url(#path-44-inside-20_2027_8049)"/>
<mask id="path-46-inside-21_2027_8049" fill="white">
<path d="M548.129 99.0967H647.226V198.193H548.129V99.0967Z"/>
</mask>
<path d="M647.226 198.193V199.226H648.258V198.193H647.226ZM647.226 99.0967H646.193V198.193H647.226H648.258V99.0967H647.226ZM647.226 198.193V197.161H548.129V198.193V199.226H647.226V198.193Z" fill="#D0D5DD" fill-opacity="0.2" mask="url(#path-46-inside-21_2027_8049)"/>
<mask id="path-48-inside-22_2027_8049" fill="white">
<path d="M647.226 99.0967H746.322V198.193H647.226V99.0967Z"/>
</mask>
<path d="M746.322 198.193V199.226H747.355V198.193H746.322ZM746.322 99.0967H745.29V198.193H746.322H747.355V99.0967H746.322ZM746.322 198.193V197.161H647.226V198.193V199.226H746.322V198.193Z" fill="#D0D5DD" fill-opacity="0.2" mask="url(#path-48-inside-22_2027_8049)"/>
<mask id="path-50-inside-23_2027_8049" fill="white">
<path d="M746.322 99.0967H845.419V198.193H746.322V99.0967Z"/>
</mask>
<path d="M845.419 198.193V199.226H846.451V198.193H845.419ZM845.419 99.0967H844.387V198.193H845.419H846.451V99.0967H845.419ZM845.419 198.193V197.161H746.322V198.193V199.226H845.419V198.193Z" fill="#D0D5DD" fill-opacity="0.2" mask="url(#path-50-inside-23_2027_8049)"/>
<mask id="path-52-inside-24_2027_8049" fill="white">
<path d="M845.419 99.0967H944.516V198.193H845.419V99.0967Z"/>
</mask>
<path d="M944.516 198.193V199.226H945.548V198.193H944.516ZM944.516 99.0967H943.484V198.193H944.516H945.548V99.0967H944.516ZM944.516 198.193V197.161H845.419V198.193V199.226H944.516V198.193Z" fill="#D0D5DD" fill-opacity="0.2" mask="url(#path-52-inside-24_2027_8049)"/>
<mask id="path-54-inside-25_2027_8049" fill="white">
<path d="M944.516 99.0967H1043.61V198.193H944.516V99.0967Z"/>
</mask>
<path d="M1043.61 198.193V199.226H1044.65V198.193H1043.61ZM1043.61 99.0967H1042.58V198.193H1043.61H1044.65V99.0967H1043.61ZM1043.61 198.193V197.161H944.516V198.193V199.226H1043.61V198.193Z" fill="#D0D5DD" fill-opacity="0.2" mask="url(#path-54-inside-25_2027_8049)"/>
<mask id="path-56-inside-26_2027_8049" fill="white">
<path d="M1043.61 99.0967H1142.71V198.193H1043.61V99.0967Z"/>
</mask>
<path d="M1043.61 99.0967H1142.71V198.193H1043.61V99.0967Z" fill="#F2F4F7" fill-opacity="0.01"/>
<path d="M1142.71 198.193V199.226H1143.74V198.193H1142.71ZM1142.71 99.0967H1141.68V198.193H1142.71H1143.74V99.0967H1142.71ZM1142.71 198.193V197.161H1043.61V198.193V199.226H1142.71V198.193Z" fill="#D0D5DD" fill-opacity="0.2" mask="url(#path-56-inside-26_2027_8049)"/>
<mask id="path-58-inside-27_2027_8049" fill="white">
<path d="M1142.71 99.0967H1241.81V198.193H1142.71V99.0967Z"/>
</mask>
<path d="M1241.81 198.193V199.226H1242.84V198.193H1241.81ZM1241.81 99.0967H1240.77V198.193H1241.81H1242.84V99.0967H1241.81ZM1241.81 198.193V197.161H1142.71V198.193V199.226H1241.81V198.193Z" fill="#D0D5DD" fill-opacity="0.2" mask="url(#path-58-inside-27_2027_8049)"/>
<mask id="path-60-inside-28_2027_8049" fill="white">
<path d="M1241.81 99.0967H1340.9V198.193H1241.81V99.0967Z"/>
</mask>
<path d="M1340.9 198.193V199.226H1341.94V198.193H1340.9ZM1340.9 99.0967H1339.87V198.193H1340.9H1341.94V99.0967H1340.9ZM1340.9 198.193V197.161H1241.81V198.193V199.226H1340.9V198.193Z" fill="#D0D5DD" fill-opacity="0.2" mask="url(#path-60-inside-28_2027_8049)"/>
<mask id="path-62-inside-29_2027_8049" fill="white">
<path d="M-46.4517 198.193H52.6451V297.29H-46.4517V198.193Z"/>
</mask>
<path d="M52.6451 297.29V298.322H53.6774V297.29H52.6451ZM52.6451 198.193H51.6129V297.29H52.6451H53.6774V198.193H52.6451ZM52.6451 297.29V296.258H-46.4517V297.29V298.322H52.6451V297.29Z" fill="#D0D5DD" fill-opacity="0.2" mask="url(#path-62-inside-29_2027_8049)"/>
<mask id="path-64-inside-30_2027_8049" fill="white">
<path d="M52.645 198.193H151.742V297.29H52.645V198.193Z"/>
</mask>
<path d="M151.742 297.29V298.322H152.774V297.29H151.742ZM151.742 198.193H150.71V297.29H151.742H152.774V198.193H151.742ZM151.742 297.29V296.258H52.645V297.29V298.322H151.742V297.29Z" fill="#D0D5DD" fill-opacity="0.2" mask="url(#path-64-inside-30_2027_8049)"/>
<mask id="path-66-inside-31_2027_8049" fill="white">
<path d="M151.742 198.193H250.839V297.29H151.742V198.193Z"/>
</mask>
<path d="M250.839 297.29V298.322H251.871V297.29H250.839ZM250.839 198.193H249.806V297.29H250.839H251.871V198.193H250.839ZM250.839 297.29V296.258H151.742V297.29V298.322H250.839V297.29Z" fill="#D0D5DD" fill-opacity="0.2" mask="url(#path-66-inside-31_2027_8049)"/>
<mask id="path-68-inside-32_2027_8049" fill="white">
<path d="M250.839 198.193H349.936V297.29H250.839V198.193Z"/>
</mask>
<path d="M349.936 297.29V298.322H350.968V297.29H349.936ZM349.936 198.193H348.903V297.29H349.936H350.968V198.193H349.936ZM349.936 297.29V296.258H250.839V297.29V298.322H349.936V297.29Z" fill="#D0D5DD" fill-opacity="0.2" mask="url(#path-68-inside-32_2027_8049)"/>
<mask id="path-70-inside-33_2027_8049" fill="white">
<path d="M349.936 198.193H449.032V297.29H349.936V198.193Z"/>
</mask>
<path d="M349.936 198.193H449.032V297.29H349.936V198.193Z" fill="#F2F4F7" fill-opacity="0.01"/>
<path d="M449.032 297.29V298.322H450.065V297.29H449.032ZM449.032 198.193H448V297.29H449.032H450.065V198.193H449.032ZM449.032 297.29V296.258H349.936V297.29V298.322H449.032V297.29Z" fill="#D0D5DD" fill-opacity="0.2" mask="url(#path-70-inside-33_2027_8049)"/>
<mask id="path-72-inside-34_2027_8049" fill="white">
<path d="M449.032 198.193H548.129V297.29H449.032V198.193Z"/>
</mask>
<path d="M548.129 297.29V298.322H549.161V297.29H548.129ZM548.129 198.193H547.097V297.29H548.129H549.161V198.193H548.129ZM548.129 297.29V296.258H449.032V297.29V298.322H548.129V297.29Z" fill="#D0D5DD" fill-opacity="0.2" mask="url(#path-72-inside-34_2027_8049)"/>
<mask id="path-74-inside-35_2027_8049" fill="white">
<path d="M548.129 198.193H647.226V297.29H548.129V198.193Z"/>
</mask>
<path d="M647.226 297.29V298.322H648.258V297.29H647.226ZM647.226 198.193H646.193V297.29H647.226H648.258V198.193H647.226ZM647.226 297.29V296.258H548.129V297.29V298.322H647.226V297.29Z" fill="#D0D5DD" fill-opacity="0.2" mask="url(#path-74-inside-35_2027_8049)"/>
<mask id="path-76-inside-36_2027_8049" fill="white">
<path d="M647.226 198.193H746.322V297.29H647.226V198.193Z"/>
</mask>
<path d="M746.322 297.29V298.322H747.355V297.29H746.322ZM746.322 198.193H745.29V297.29H746.322H747.355V198.193H746.322ZM746.322 297.29V296.258H647.226V297.29V298.322H746.322V297.29Z" fill="#D0D5DD" fill-opacity="0.2" mask="url(#path-76-inside-36_2027_8049)"/>
<mask id="path-78-inside-37_2027_8049" fill="white">
<path d="M746.322 198.193H845.419V297.29H746.322V198.193Z"/>
</mask>
<path d="M746.322 198.193H845.419V297.29H746.322V198.193Z" fill="#F2F4F7" fill-opacity="0.01"/>
<path d="M845.419 297.29V298.322H846.451V297.29H845.419ZM845.419 198.193H844.387V297.29H845.419H846.451V198.193H845.419ZM845.419 297.29V296.258H746.322V297.29V298.322H845.419V297.29Z" fill="#D0D5DD" fill-opacity="0.2" mask="url(#path-78-inside-37_2027_8049)"/>
<mask id="path-80-inside-38_2027_8049" fill="white">
<path d="M845.419 198.193H944.516V297.29H845.419V198.193Z"/>
</mask>
<path d="M944.516 297.29V298.322H945.548V297.29H944.516ZM944.516 198.193H943.484V297.29H944.516H945.548V198.193H944.516ZM944.516 297.29V296.258H845.419V297.29V298.322H944.516V297.29Z" fill="#D0D5DD" fill-opacity="0.2" mask="url(#path-80-inside-38_2027_8049)"/>
<mask id="path-82-inside-39_2027_8049" fill="white">
<path d="M944.516 198.193H1043.61V297.29H944.516V198.193Z"/>
</mask>
<path d="M1043.61 297.29V298.322H1044.65V297.29H1043.61ZM1043.61 198.193H1042.58V297.29H1043.61H1044.65V198.193H1043.61ZM1043.61 297.29V296.258H944.516V297.29V298.322H1043.61V297.29Z" fill="#D0D5DD" fill-opacity="0.2" mask="url(#path-82-inside-39_2027_8049)"/>
<mask id="path-84-inside-40_2027_8049" fill="white">
<path d="M1043.61 198.193H1142.71V297.29H1043.61V198.193Z"/>
</mask>
<path d="M1142.71 297.29V298.322H1143.74V297.29H1142.71ZM1142.71 198.193H1141.68V297.29H1142.71H1143.74V198.193H1142.71ZM1142.71 297.29V296.258H1043.61V297.29V298.322H1142.71V297.29Z" fill="#D0D5DD" fill-opacity="0.2" mask="url(#path-84-inside-40_2027_8049)"/>
<mask id="path-86-inside-41_2027_8049" fill="white">
<path d="M1142.71 198.193H1241.81V297.29H1142.71V198.193Z"/>
</mask>
<path d="M1241.81 297.29V298.322H1242.84V297.29H1241.81ZM1241.81 198.193H1240.77V297.29H1241.81H1242.84V198.193H1241.81ZM1241.81 297.29V296.258H1142.71V297.29V298.322H1241.81V297.29Z" fill="#D0D5DD" fill-opacity="0.2" mask="url(#path-86-inside-41_2027_8049)"/>
<mask id="path-88-inside-42_2027_8049" fill="white">
<path d="M1241.81 198.193H1340.9V297.29H1241.81V198.193Z"/>
</mask>
<path d="M1340.9 297.29V298.322H1341.94V297.29H1340.9ZM1340.9 198.193H1339.87V297.29H1340.9H1341.94V198.193H1340.9ZM1340.9 297.29V296.258H1241.81V297.29V298.322H1340.9V297.29Z" fill="#D0D5DD" fill-opacity="0.2" mask="url(#path-88-inside-42_2027_8049)"/>
<mask id="path-90-inside-43_2027_8049" fill="white">
<path d="M-46.4517 297.291H52.6451V396.387H-46.4517V297.291Z"/>
</mask>
<path d="M52.6451 396.387V397.42H53.6774V396.387H52.6451ZM52.6451 297.291H51.6129V396.387H52.6451H53.6774V297.291H52.6451ZM52.6451 396.387V395.355H-46.4517V396.387V397.42H52.6451V396.387Z" fill="#D0D5DD" fill-opacity="0.2" mask="url(#path-90-inside-43_2027_8049)"/>
<mask id="path-92-inside-44_2027_8049" fill="white">
<path d="M52.645 297.291H151.742V396.387H52.645V297.291Z"/>
</mask>
<path d="M151.742 396.387V397.42H152.774V396.387H151.742ZM151.742 297.291H150.71V396.387H151.742H152.774V297.291H151.742ZM151.742 396.387V395.355H52.645V396.387V397.42H151.742V396.387Z" fill="#D0D5DD" fill-opacity="0.2" mask="url(#path-92-inside-44_2027_8049)"/>
<mask id="path-94-inside-45_2027_8049" fill="white">
<path d="M151.742 297.291H250.839V396.387H151.742V297.291Z"/>
</mask>
<path d="M250.839 396.387V397.42H251.871V396.387H250.839ZM250.839 297.291H249.806V396.387H250.839H251.871V297.291H250.839ZM250.839 396.387V395.355H151.742V396.387V397.42H250.839V396.387Z" fill="#D0D5DD" fill-opacity="0.2" mask="url(#path-94-inside-45_2027_8049)"/>
<mask id="path-96-inside-46_2027_8049" fill="white">
<path d="M250.839 297.291H349.936V396.387H250.839V297.291Z"/>
</mask>
<path d="M349.936 396.387V397.42H350.968V396.387H349.936ZM349.936 297.291H348.903V396.387H349.936H350.968V297.291H349.936ZM349.936 396.387V395.355H250.839V396.387V397.42H349.936V396.387Z" fill="#D0D5DD" fill-opacity="0.2" mask="url(#path-96-inside-46_2027_8049)"/>
<mask id="path-98-inside-47_2027_8049" fill="white">
<path d="M349.936 297.291H449.032V396.387H349.936V297.291Z"/>
</mask>
<path d="M449.032 396.387V397.42H450.065V396.387H449.032ZM449.032 297.291H448V396.387H449.032H450.065V297.291H449.032ZM449.032 396.387V395.355H349.936V396.387V397.42H449.032V396.387Z" fill="#D0D5DD" fill-opacity="0.2" mask="url(#path-98-inside-47_2027_8049)"/>
<mask id="path-100-inside-48_2027_8049" fill="white">
<path d="M449.032 297.291H548.129V396.387H449.032V297.291Z"/>
</mask>
<path d="M548.129 396.387V397.42H549.161V396.387H548.129ZM548.129 297.291H547.097V396.387H548.129H549.161V297.291H548.129ZM548.129 396.387V395.355H449.032V396.387V397.42H548.129V396.387Z" fill="#D0D5DD" fill-opacity="0.2" mask="url(#path-100-inside-48_2027_8049)"/>
<mask id="path-102-inside-49_2027_8049" fill="white">
<path d="M548.129 297.291H647.226V396.387H548.129V297.291Z"/>
</mask>
<path d="M647.226 396.387V397.42H648.258V396.387H647.226ZM647.226 297.291H646.193V396.387H647.226H648.258V297.291H647.226ZM647.226 396.387V395.355H548.129V396.387V397.42H647.226V396.387Z" fill="#D0D5DD" fill-opacity="0.2" mask="url(#path-102-inside-49_2027_8049)"/>
<mask id="path-104-inside-50_2027_8049" fill="white">
<path d="M647.226 297.291H746.322V396.387H647.226V297.291Z"/>
</mask>
<path d="M746.322 396.387V397.42H747.355V396.387H746.322ZM746.322 297.291H745.29V396.387H746.322H747.355V297.291H746.322ZM746.322 396.387V395.355H647.226V396.387V397.42H746.322V396.387Z" fill="#D0D5DD" fill-opacity="0.2" mask="url(#path-104-inside-50_2027_8049)"/>
<mask id="path-106-inside-51_2027_8049" fill="white">
<path d="M746.322 297.291H845.419V396.387H746.322V297.291Z"/>
</mask>
<path d="M845.419 396.387V397.42H846.451V396.387H845.419ZM845.419 297.291H844.387V396.387H845.419H846.451V297.291H845.419ZM845.419 396.387V395.355H746.322V396.387V397.42H845.419V396.387Z" fill="#D0D5DD" fill-opacity="0.2" mask="url(#path-106-inside-51_2027_8049)"/>
<mask id="path-108-inside-52_2027_8049" fill="white">
<path d="M845.419 297.291H944.516V396.387H845.419V297.291Z"/>
</mask>
<path d="M944.516 396.387V397.42H945.548V396.387H944.516ZM944.516 297.291H943.484V396.387H944.516H945.548V297.291H944.516ZM944.516 396.387V395.355H845.419V396.387V397.42H944.516V396.387Z" fill="#D0D5DD" fill-opacity="0.2" mask="url(#path-108-inside-52_2027_8049)"/>
<mask id="path-110-inside-53_2027_8049" fill="white">
<path d="M944.516 297.291H1043.61V396.387H944.516V297.291Z"/>
</mask>
<path d="M1043.61 396.387V397.42H1044.65V396.387H1043.61ZM1043.61 297.291H1042.58V396.387H1043.61H1044.65V297.291H1043.61ZM1043.61 396.387V395.355H944.516V396.387V397.42H1043.61V396.387Z" fill="#D0D5DD" fill-opacity="0.2" mask="url(#path-110-inside-53_2027_8049)"/>
<mask id="path-112-inside-54_2027_8049" fill="white">
<path d="M1043.61 297.291H1142.71V396.387H1043.61V297.291Z"/>
</mask>
<path d="M1043.61 297.291H1142.71V396.387H1043.61V297.291Z" fill="#F2F4F7" fill-opacity="0.01"/>
<path d="M1142.71 396.387V397.42H1143.74V396.387H1142.71ZM1142.71 297.291H1141.68V396.387H1142.71H1143.74V297.291H1142.71ZM1142.71 396.387V395.355H1043.61V396.387V397.42H1142.71V396.387Z" fill="#D0D5DD" fill-opacity="0.2" mask="url(#path-112-inside-54_2027_8049)"/>
<mask id="path-114-inside-55_2027_8049" fill="white">
<path d="M1142.71 297.291H1241.81V396.387H1142.71V297.291Z"/>
</mask>
<path d="M1241.81 396.387V397.42H1242.84V396.387H1241.81ZM1241.81 297.291H1240.77V396.387H1241.81H1242.84V297.291H1241.81ZM1241.81 396.387V395.355H1142.71V396.387V397.42H1241.81V396.387Z" fill="#D0D5DD" fill-opacity="0.2" mask="url(#path-114-inside-55_2027_8049)"/>
<mask id="path-116-inside-56_2027_8049" fill="white">
<path d="M1241.81 297.291H1340.9V396.387H1241.81V297.291Z"/>
</mask>
<path d="M1340.9 396.387V397.42H1341.94V396.387H1340.9ZM1340.9 297.291H1339.87V396.387H1340.9H1341.94V297.291H1340.9ZM1340.9 396.387V395.355H1241.81V396.387V397.42H1340.9V396.387Z" fill="#D0D5DD" fill-opacity="0.2" mask="url(#path-116-inside-56_2027_8049)"/>
<mask id="path-118-inside-57_2027_8049" fill="white">
<path d="M-46.4517 396.387H52.6451V495.484H-46.4517V396.387Z"/>
</mask>
<path d="M52.6451 495.484V496.516H53.6774V495.484H52.6451ZM52.6451 396.387H51.6129V495.484H52.6451H53.6774V396.387H52.6451ZM52.6451 495.484V494.452H-46.4517V495.484V496.516H52.6451V495.484Z" fill="#D0D5DD" fill-opacity="0.2" mask="url(#path-118-inside-57_2027_8049)"/>
<mask id="path-120-inside-58_2027_8049" fill="white">
<path d="M52.645 396.387H151.742V495.484H52.645V396.387Z"/>
</mask>
<path d="M151.742 495.484V496.516H152.774V495.484H151.742ZM151.742 396.387H150.71V495.484H151.742H152.774V396.387H151.742ZM151.742 495.484V494.452H52.645V495.484V496.516H151.742V495.484Z" fill="#D0D5DD" fill-opacity="0.2" mask="url(#path-120-inside-58_2027_8049)"/>
<mask id="path-122-inside-59_2027_8049" fill="white">
<path d="M151.742 396.387H250.839V495.484H151.742V396.387Z"/>
</mask>
<path d="M250.839 495.484V496.516H251.871V495.484H250.839ZM250.839 396.387H249.806V495.484H250.839H251.871V396.387H250.839ZM250.839 495.484V494.452H151.742V495.484V496.516H250.839V495.484Z" fill="#D0D5DD" fill-opacity="0.2" mask="url(#path-122-inside-59_2027_8049)"/>
<mask id="path-124-inside-60_2027_8049" fill="white">
<path d="M250.839 396.387H349.936V495.484H250.839V396.387Z"/>
</mask>
<path d="M349.936 495.484V496.516H350.968V495.484H349.936ZM349.936 396.387H348.903V495.484H349.936H350.968V396.387H349.936ZM349.936 495.484V494.452H250.839V495.484V496.516H349.936V495.484Z" fill="#D0D5DD" fill-opacity="0.2" mask="url(#path-124-inside-60_2027_8049)"/>
<mask id="path-126-inside-61_2027_8049" fill="white">
<path d="M349.936 396.387H449.032V495.484H349.936V396.387Z"/>
</mask>
<path d="M449.032 495.484V496.516H450.065V495.484H449.032ZM449.032 396.387H448V495.484H449.032H450.065V396.387H449.032ZM449.032 495.484V494.452H349.936V495.484V496.516H449.032V495.484Z" fill="#D0D5DD" fill-opacity="0.2" mask="url(#path-126-inside-61_2027_8049)"/>
<mask id="path-128-inside-62_2027_8049" fill="white">
<path d="M449.032 396.387H548.129V495.484H449.032V396.387Z"/>
</mask>
<path d="M449.032 396.387H548.129V495.484H449.032V396.387Z" fill="#F2F4F7" fill-opacity="0.01"/>
<path d="M548.129 495.484V496.516H549.161V495.484H548.129ZM548.129 396.387H547.097V495.484H548.129H549.161V396.387H548.129ZM548.129 495.484V494.452H449.032V495.484V496.516H548.129V495.484Z" fill="#D0D5DD" fill-opacity="0.2" mask="url(#path-128-inside-62_2027_8049)"/>
<mask id="path-130-inside-63_2027_8049" fill="white">
<path d="M548.129 396.387H647.226V495.484H548.129V396.387Z"/>
</mask>
<path d="M647.226 495.484V496.516H648.258V495.484H647.226ZM647.226 396.387H646.193V495.484H647.226H648.258V396.387H647.226ZM647.226 495.484V494.452H548.129V495.484V496.516H647.226V495.484Z" fill="#D0D5DD" fill-opacity="0.2" mask="url(#path-130-inside-63_2027_8049)"/>
<mask id="path-132-inside-64_2027_8049" fill="white">
<path d="M647.226 396.387H746.322V495.484H647.226V396.387Z"/>
</mask>
<path d="M746.322 495.484V496.516H747.355V495.484H746.322ZM746.322 396.387H745.29V495.484H746.322H747.355V396.387H746.322ZM746.322 495.484V494.452H647.226V495.484V496.516H746.322V495.484Z" fill="#D0D5DD" fill-opacity="0.2" mask="url(#path-132-inside-64_2027_8049)"/>
<mask id="path-134-inside-65_2027_8049" fill="white">
<path d="M746.322 396.387H845.419V495.484H746.322V396.387Z"/>
</mask>
<path d="M845.419 495.484V496.516H846.451V495.484H845.419ZM845.419 396.387H844.387V495.484H845.419H846.451V396.387H845.419ZM845.419 495.484V494.452H746.322V495.484V496.516H845.419V495.484Z" fill="#D0D5DD" fill-opacity="0.2" mask="url(#path-134-inside-65_2027_8049)"/>
<mask id="path-136-inside-66_2027_8049" fill="white">
<path d="M845.419 396.387H944.516V495.484H845.419V396.387Z"/>
</mask>
<path d="M944.516 495.484V496.516H945.548V495.484H944.516ZM944.516 396.387H943.484V495.484H944.516H945.548V396.387H944.516ZM944.516 495.484V494.452H845.419V495.484V496.516H944.516V495.484Z" fill="#D0D5DD" fill-opacity="0.2" mask="url(#path-136-inside-66_2027_8049)"/>
<mask id="path-138-inside-67_2027_8049" fill="white">
<path d="M944.516 396.387H1043.61V495.484H944.516V396.387Z"/>
</mask>
<path d="M1043.61 495.484V496.516H1044.65V495.484H1043.61ZM1043.61 396.387H1042.58V495.484H1043.61H1044.65V396.387H1043.61ZM1043.61 495.484V494.452H944.516V495.484V496.516H1043.61V495.484Z" fill="#D0D5DD" fill-opacity="0.2" mask="url(#path-138-inside-67_2027_8049)"/>
<mask id="path-140-inside-68_2027_8049" fill="white">
<path d="M1043.61 396.387H1142.71V495.484H1043.61V396.387Z"/>
</mask>
<path d="M1142.71 495.484V496.516H1143.74V495.484H1142.71ZM1142.71 396.387H1141.68V495.484H1142.71H1143.74V396.387H1142.71ZM1142.71 495.484V494.452H1043.61V495.484V496.516H1142.71V495.484Z" fill="#D0D5DD" fill-opacity="0.2" mask="url(#path-140-inside-68_2027_8049)"/>
<mask id="path-142-inside-69_2027_8049" fill="white">
<path d="M1142.71 396.387H1241.81V495.484H1142.71V396.387Z"/>
</mask>
<path d="M1241.81 495.484V496.516H1242.84V495.484H1241.81ZM1241.81 396.387H1240.77V495.484H1241.81H1242.84V396.387H1241.81ZM1241.81 495.484V494.452H1142.71V495.484V496.516H1241.81V495.484Z" fill="#D0D5DD" fill-opacity="0.2" mask="url(#path-142-inside-69_2027_8049)"/>
<mask id="path-144-inside-70_2027_8049" fill="white">
<path d="M1241.81 396.387H1340.9V495.484H1241.81V396.387Z"/>
</mask>
<path d="M1340.9 495.484V496.516H1341.94V495.484H1340.9ZM1340.9 396.387H1339.87V495.484H1340.9H1341.94V396.387H1340.9ZM1340.9 495.484V494.452H1241.81V495.484V496.516H1340.9V495.484Z" fill="#D0D5DD" fill-opacity="0.2" mask="url(#path-144-inside-70_2027_8049)"/>
<mask id="path-146-inside-71_2027_8049" fill="white">
<path d="M-46.4517 495.484H52.6451V594.581H-46.4517V495.484Z"/>
</mask>
<path d="M52.6451 594.581V595.613H53.6774V594.581H52.6451ZM52.6451 495.484H51.6129V594.581H52.6451H53.6774V495.484H52.6451ZM52.6451 594.581V593.548H-46.4517V594.581V595.613H52.6451V594.581Z" fill="#D0D5DD" fill-opacity="0.2" mask="url(#path-146-inside-71_2027_8049)"/>
<mask id="path-148-inside-72_2027_8049" fill="white">
<path d="M52.645 495.484H151.742V594.581H52.645V495.484Z"/>
</mask>
<path d="M151.742 594.581V595.613H152.774V594.581H151.742ZM151.742 495.484H150.71V594.581H151.742H152.774V495.484H151.742ZM151.742 594.581V593.548H52.645V594.581V595.613H151.742V594.581Z" fill="#D0D5DD" fill-opacity="0.2" mask="url(#path-148-inside-72_2027_8049)"/>
<mask id="path-150-inside-73_2027_8049" fill="white">
<path d="M151.742 495.484H250.839V594.581H151.742V495.484Z"/>
</mask>
<path d="M151.742 495.484H250.839V594.581H151.742V495.484Z" fill="#F2F4F7" fill-opacity="0.01"/>
<path d="M250.839 594.581V595.613H251.871V594.581H250.839ZM250.839 495.484H249.806V594.581H250.839H251.871V495.484H250.839ZM250.839 594.581V593.548H151.742V594.581V595.613H250.839V594.581Z" fill="#D0D5DD" fill-opacity="0.2" mask="url(#path-150-inside-73_2027_8049)"/>
<mask id="path-152-inside-74_2027_8049" fill="white">
<path d="M250.839 495.484H349.936V594.581H250.839V495.484Z"/>
</mask>
<path d="M349.936 594.581V595.613H350.968V594.581H349.936ZM349.936 495.484H348.903V594.581H349.936H350.968V495.484H349.936ZM349.936 594.581V593.548H250.839V594.581V595.613H349.936V594.581Z" fill="#D0D5DD" fill-opacity="0.2" mask="url(#path-152-inside-74_2027_8049)"/>
<mask id="path-154-inside-75_2027_8049" fill="white">
<path d="M349.936 495.484H449.032V594.581H349.936V495.484Z"/>
</mask>
<path d="M449.032 594.581V595.613H450.065V594.581H449.032ZM449.032 495.484H448V594.581H449.032H450.065V495.484H449.032ZM449.032 594.581V593.548H349.936V594.581V595.613H449.032V594.581Z" fill="#D0D5DD" fill-opacity="0.2" mask="url(#path-154-inside-75_2027_8049)"/>
<mask id="path-156-inside-76_2027_8049" fill="white">
<path d="M449.032 495.484H548.129V594.581H449.032V495.484Z"/>
</mask>
<path d="M548.129 594.581V595.613H549.161V594.581H548.129ZM548.129 495.484H547.097V594.581H548.129H549.161V495.484H548.129ZM548.129 594.581V593.548H449.032V594.581V595.613H548.129V594.581Z" fill="#D0D5DD" fill-opacity="0.2" mask="url(#path-156-inside-76_2027_8049)"/>
<mask id="path-158-inside-77_2027_8049" fill="white">
<path d="M548.129 495.484H647.226V594.581H548.129V495.484Z"/>
</mask>
<path d="M647.226 594.581V595.613H648.258V594.581H647.226ZM647.226 495.484H646.193V594.581H647.226H648.258V495.484H647.226ZM647.226 594.581V593.548H548.129V594.581V595.613H647.226V594.581Z" fill="#D0D5DD" fill-opacity="0.2" mask="url(#path-158-inside-77_2027_8049)"/>
<mask id="path-160-inside-78_2027_8049" fill="white">
<path d="M647.226 495.484H746.322V594.581H647.226V495.484Z"/>
</mask>
<path d="M746.322 594.581V595.613H747.355V594.581H746.322ZM746.322 495.484H745.29V594.581H746.322H747.355V495.484H746.322ZM746.322 594.581V593.548H647.226V594.581V595.613H746.322V594.581Z" fill="#D0D5DD" fill-opacity="0.2" mask="url(#path-160-inside-78_2027_8049)"/>
<mask id="path-162-inside-79_2027_8049" fill="white">
<path d="M746.322 495.484H845.419V594.581H746.322V495.484Z"/>
</mask>
<path d="M746.322 495.484H845.419V594.581H746.322V495.484Z" fill="#F2F4F7" fill-opacity="0.01"/>
<path d="M845.419 594.581V595.613H846.451V594.581H845.419ZM845.419 495.484H844.387V594.581H845.419H846.451V495.484H845.419ZM845.419 594.581V593.548H746.322V594.581V595.613H845.419V594.581Z" fill="#D0D5DD" fill-opacity="0.2" mask="url(#path-162-inside-79_2027_8049)"/>
<mask id="path-164-inside-80_2027_8049" fill="white">
<path d="M845.419 495.484H944.516V594.581H845.419V495.484Z"/>
</mask>
<path d="M944.516 594.581V595.613H945.548V594.581H944.516ZM944.516 495.484H943.484V594.581H944.516H945.548V495.484H944.516ZM944.516 594.581V593.548H845.419V594.581V595.613H944.516V594.581Z" fill="#D0D5DD" fill-opacity="0.2" mask="url(#path-164-inside-80_2027_8049)"/>
<mask id="path-166-inside-81_2027_8049" fill="white">
<path d="M944.516 495.484H1043.61V594.581H944.516V495.484Z"/>
</mask>
<path d="M1043.61 594.581V595.613H1044.65V594.581H1043.61ZM1043.61 495.484H1042.58V594.581H1043.61H1044.65V495.484H1043.61ZM1043.61 594.581V593.548H944.516V594.581V595.613H1043.61V594.581Z" fill="#D0D5DD" fill-opacity="0.2" mask="url(#path-166-inside-81_2027_8049)"/>
<mask id="path-168-inside-82_2027_8049" fill="white">
<path d="M1043.61 495.484H1142.71V594.581H1043.61V495.484Z"/>
</mask>
<path d="M1142.71 594.581V595.613H1143.74V594.581H1142.71ZM1142.71 495.484H1141.68V594.581H1142.71H1143.74V495.484H1142.71ZM1142.71 594.581V593.548H1043.61V594.581V595.613H1142.71V594.581Z" fill="#D0D5DD" fill-opacity="0.2" mask="url(#path-168-inside-82_2027_8049)"/>
<mask id="path-170-inside-83_2027_8049" fill="white">
<path d="M1142.71 495.484H1241.81V594.581H1142.71V495.484Z"/>
</mask>
<path d="M1241.81 594.581V595.613H1242.84V594.581H1241.81ZM1241.81 495.484H1240.77V594.581H1241.81H1242.84V495.484H1241.81ZM1241.81 594.581V593.548H1142.71V594.581V595.613H1241.81V594.581Z" fill="#D0D5DD" fill-opacity="0.2" mask="url(#path-170-inside-83_2027_8049)"/>
<mask id="path-172-inside-84_2027_8049" fill="white">
<path d="M1241.81 495.484H1340.9V594.581H1241.81V495.484Z"/>
</mask>
<path d="M1340.9 594.581V595.613H1341.94V594.581H1340.9ZM1340.9 495.484H1339.87V594.581H1340.9H1341.94V495.484H1340.9ZM1340.9 594.581V593.548H1241.81V594.581V595.613H1340.9V594.581Z" fill="#D0D5DD" fill-opacity="0.2" mask="url(#path-172-inside-84_2027_8049)"/>
</g>
<rect x="-343.226" y="0.516129" width="1980.9" height="1485.42" stroke="#D0D5DD" stroke-opacity="0.2" stroke-width="1.03226"/>
</g>
</g>
</g>
<defs>
<filter id="filter0_f_2027_8049" x="-342.71" y="-26.8383" width="1049.81" height="1049.81" filterUnits="userSpaceOnUse" color-interpolation-filters="sRGB">
<feFlood flood-opacity="0" result="BackgroundImageFix"/>
<feBlend mode="normal" in="SourceGraphic" in2="BackgroundImageFix" result="shape"/>
<feGaussianBlur stdDeviation="206.452" result="effect1_foregroundBlur_2027_8049"/>
</filter>
<filter id="filter1_f_2027_8049" x="569.807" y="-501.677" width="1049.81" height="1049.81" filterUnits="userSpaceOnUse" color-interpolation-filters="sRGB">
<feFlood flood-opacity="0" result="BackgroundImageFix"/>
<feBlend mode="normal" in="SourceGraphic" in2="BackgroundImageFix" result="shape"/>
<feGaussianBlur stdDeviation="206.452" result="effect1_foregroundBlur_2027_8049"/>
</filter>
<radialGradient id="paint0_radial_2027_8049" cx="0" cy="0" r="1" gradientUnits="userSpaceOnUse" gradientTransform="translate(743.226 -0.000147297) rotate(90) scale(1235.61 775.833)">
<stop/>
<stop offset="0.953125" stop-opacity="0"/>
</radialGradient>
<clipPath id="clip0_2027_8049">
<rect width="1280" height="551" rx="30" fill="white"/>
</clipPath>
<clipPath id="clip1_2027_8049">
<rect width="1287.23" height="880.516" fill="white" transform="translate(3.09668)"/>
</clipPath>
<clipPath id="clip2_2027_8049">
<rect x="-343.742" width="1981.94" height="1486.45" fill="white"/>
</clipPath>
</defs>
</svg>
