<svg width="32" height="32" viewBox="0 0 32 32" fill="none" xmlns="http://www.w3.org/2000/svg">
<g clip-path="url(#clip0_2027_7995)">
<g clip-path="url(#clip1_2027_7995)">
<path d="M7.25 21V17.25C7.25 16.9185 7.3817 16.6005 7.61612 16.3661C7.85054 16.1317 8.16848 16 8.5 16H23.5C23.8315 16 24.1495 16.1317 24.3839 16.3661C24.6183 16.6005 24.75 16.9185 24.75 17.25V21M16 16V11M22.25 21H27.25C27.9404 21 28.5 21.5596 28.5 22.25V27.25C28.5 27.9404 27.9404 28.5 27.25 28.5H22.25C21.5596 28.5 21 27.9404 21 27.25V22.25C21 21.5596 21.5596 21 22.25 21ZM4.75 21H9.75C10.4404 21 11 21.5596 11 22.25V27.25C11 27.9404 10.4404 28.5 9.75 28.5H4.75C4.05964 28.5 3.5 27.9404 3.5 27.25V22.25C3.5 21.5596 4.05964 21 4.75 21ZM13.5 3.5H18.5C19.1904 3.5 19.75 4.05964 19.75 4.75V9.75C19.75 10.4404 19.1904 11 18.5 11H13.5C12.8096 11 12.25 10.4404 12.25 9.75V4.75C12.25 4.05964 12.8096 3.5 13.5 3.5Z" stroke="#585CE4" stroke-width="2.2" stroke-linecap="round" stroke-linejoin="round"/>
</g>
</g>
<defs>
<clipPath id="clip0_2027_7995">
<rect width="32" height="32" fill="white"/>
</clipPath>
<clipPath id="clip1_2027_7995">
<rect width="32" height="32" fill="white" transform="translate(0 -0.0136719)"/>
</clipPath>
</defs>
</svg>
