<svg width="40" height="40" viewBox="0 0 40 40" fill="none" xmlns="http://www.w3.org/2000/svg">
<rect width="40" height="40" rx="20" fill="white"/>
<path d="M24.19 10H15.81C12.17 10 10 12.17 10 15.81V24.18C10 27.83 12.17 30 15.81 30H24.18C27.82 30 29.99 27.83 29.99 24.19V15.81C30 12.17 27.83 10 24.19 10ZM20 23.88C17.86 23.88 16.12 22.14 16.12 20C16.12 17.86 17.86 16.12 20 16.12C22.14 16.12 23.88 17.86 23.88 20C23.88 22.14 22.14 23.88 20 23.88ZM25.92 14.88C25.87 15 25.8 15.11 25.71 15.21C25.61 15.3 25.5 15.37 25.38 15.42C25.26 15.47 25.13 15.5 25 15.5C24.73 15.5 24.48 15.4 24.29 15.21C24.2 15.11 24.13 15 24.08 14.88C24.03 14.76 24 14.63 24 14.5C24 14.37 24.03 14.24 24.08 14.12C24.13 13.99 24.2 13.89 24.29 13.79C24.52 13.56 24.87 13.45 25.19 13.52C25.26 13.53 25.32 13.55 25.38 13.58C25.44 13.6 25.5 13.63 25.56 13.67C25.61 13.7 25.66 13.75 25.71 13.79C25.8 13.89 25.87 13.99 25.92 14.12C25.97 14.24 26 14.37 26 14.5C26 14.63 25.97 14.76 25.92 14.88Z" fill="#171717"/>
</svg>
