<svg width="16" height="16" viewBox="0 0 16 16" fill="none" xmlns="http://www.w3.org/2000/svg">
<rect x="0.208618" y="0.208618" width="15" height="15" rx="7.5" fill="white"/>
<path d="M14.3753 10.2313L12.7537 9.69073M2.66361 5.72676L1.04199 5.18622M5.18622 14.3753L5.72676 12.7537M9.69073 2.66361L10.2313 1.04199M10.5914 14.3751L9.87064 12.5733M5.54623 2.84379L4.82551 1.04199M1.04199 10.5914L2.84379 9.87064M12.5733 5.54623L14.3751 4.82551M13.114 7.70857C13.114 10.6939 10.6939 13.114 7.70857 13.114C4.72325 13.114 2.30317 10.6939 2.30317 7.70857C2.30317 4.72325 4.72325 2.30317 7.70857 2.30317C10.6939 2.30317 13.114 4.72325 13.114 7.70857Z" stroke="#585CE4" stroke-width="2.08333" stroke-linecap="round" stroke-linejoin="round"/>
</svg>
