<svg width="28" height="28" viewBox="0 0 28 28" fill="none" xmlns="http://www.w3.org/2000/svg">
<g clip-path="url(#clip0_2027_7332)">
<path d="M18.0833 15.1667C17.0004 15.1667 15.9618 15.597 15.196 16.3627C14.4302 17.1285 14 18.1671 14 19.2501V20.4167C14 21.4997 14.4302 22.5383 15.196 23.3041C15.9618 24.0699 17.0004 24.5001 18.0833 24.5001C19.1663 24.5001 20.2049 24.0699 20.9707 23.3041C21.7365 22.5383 22.1667 21.4997 22.1667 20.4167V18.3167" stroke="#585CE4" stroke-width="2" stroke-linecap="round" stroke-linejoin="round"/>
<path d="M9.91659 15.1667C10.9996 15.1667 12.0382 15.597 12.8039 16.3627C13.5697 17.1285 13.9999 18.1671 13.9999 19.2501V20.4167C13.9999 21.4997 13.5697 22.5383 12.8039 23.3041C12.0382 24.0699 10.9996 24.5001 9.91659 24.5001C8.83362 24.5001 7.79501 24.0699 7.02923 23.3041C6.26346 22.5383 5.83325 21.4997 5.83325 20.4167V18.3167" stroke="#585CE4" stroke-width="2" stroke-linecap="round" stroke-linejoin="round"/>
<path d="M20.4166 18.6667C21.4996 18.6667 22.5382 18.2365 23.3039 17.4707C24.0697 16.7049 24.4999 15.6663 24.4999 14.5833C24.4999 13.5004 24.0697 12.4618 23.3039 11.696C22.5382 10.9302 21.4996 10.5 20.4166 10.5H19.8333" stroke="#585CE4" stroke-width="2" stroke-linecap="round" stroke-linejoin="round"/>
<path d="M22.1667 10.85V7.58333C22.1667 6.50037 21.7365 5.46175 20.9707 4.69598C20.2049 3.93021 19.1663 3.5 18.0833 3.5C17.0004 3.5 15.9618 3.93021 15.196 4.69598C14.4302 5.46175 14 6.50037 14 7.58333" stroke="#585CE4" stroke-width="2" stroke-linecap="round" stroke-linejoin="round"/>
<path d="M7.58333 18.6667C6.50037 18.6667 5.46175 18.2365 4.69598 17.4707C3.93021 16.7049 3.5 15.6663 3.5 14.5833C3.5 13.5004 3.93021 12.4618 4.69598 11.696C5.46175 10.9302 6.50037 10.5 7.58333 10.5H8.16667" stroke="#585CE4" stroke-width="2" stroke-linecap="round" stroke-linejoin="round"/>
<path d="M5.83325 10.85V7.58333C5.83325 6.50037 6.26346 5.46175 7.02923 4.69598C7.79501 3.93021 8.83362 3.5 9.91659 3.5C10.9996 3.5 12.0382 3.93021 12.8039 4.69598C13.5697 5.46175 13.9999 6.50037 13.9999 7.58333V19.25" stroke="#585CE4" stroke-width="2" stroke-linecap="round" stroke-linejoin="round"/>
</g>
<defs>
<clipPath id="clip0_2027_7332">
<rect width="28" height="28" fill="white"/>
</clipPath>
</defs>
</svg>
