<svg width="352" height="276" viewBox="0 0 352 276" fill="none" xmlns="http://www.w3.org/2000/svg">
<g opacity="0.08">
<rect width="530.944" height="275.177" transform="matrix(-1 0 0 1 530.944 0)" fill="#F7F8F9" fill-opacity="0.3"/>
<g clip-path="url(#clip0_2027_8892)">
<mask id="mask0_2027_8892" style="mask-type:luminance" maskUnits="userSpaceOnUse" x="0" y="0" width="531" height="271">
<path d="M530.931 0H0.0134277V270.519H530.931V0Z" fill="white"/>
</mask>
<g mask="url(#mask0_2027_8892)">
<mask id="mask1_2027_8892" style="mask-type:alpha" maskUnits="userSpaceOnUse" x="-47" y="0" width="625" height="625">
<path d="M577.702 0H-46.7579V624.469H577.702V0Z" fill="url(#paint0_radial_2027_8892)"/>
</mask>
<g mask="url(#mask1_2027_8892)">
<path d="M343.53 0H304.501V39.0293H343.53V0ZM343.53 39.0293H304.501V78.0586H343.53V39.0293ZM187.415 78.0586H148.386V117.088H187.415V78.0586ZM382.558 117.088H343.53V156.117H382.558V117.088ZM343.53 156.117H304.501V195.147H343.53V156.117ZM148.386 156.117H109.357V195.147H148.386V156.117ZM460.616 195.147H421.587V234.176H460.616V195.147ZM226.443 234.176H187.415V273.205H226.443V234.176Z" fill="black"/>
<path d="M499.763 0H498.834V624.469H499.763V0ZM460.789 0H459.86V624.469H460.789V0ZM421.82 0H420.891V624.469H421.82V0ZM382.849 0H381.92V624.469H382.849V0ZM343.88 0H342.951V624.469H343.88V0ZM304.905 0H303.976V624.469H304.905V0ZM265.936 0H265.007V624.469H265.936V0ZM226.967 0H226.038V624.469H226.967V0ZM187.997 0H187.068V624.469H187.997V0ZM149.023 0H148.094V624.469H149.023V0ZM110.054 0H109.124V624.469H110.054V0ZM71.0842 0H70.1551V624.469H71.0842V0ZM32.1148 0H31.1857V624.469H32.1148V0Z" fill="black"/>
<path d="M-46.7579 38.9712V39.9003H577.702V38.9712H-46.7579ZM-46.7579 77.9423V78.8715H577.702V77.9423H-46.7579ZM-46.7579 116.914V117.843H577.702V116.914H-46.7579ZM-46.7579 155.885V156.814H577.702V155.885H-46.7579ZM-46.7579 194.856V195.785H577.702V194.856H-46.7579ZM-46.7579 233.827V234.756H577.702V233.827H-46.7579Z" fill="black"/>
</g>
</g>
</g>
</g>
<defs>
<radialGradient id="paint0_radial_2027_8892" cx="0" cy="0" r="1" gradientUnits="userSpaceOnUse" gradientTransform="translate(265.472 312.234) rotate(90) scale(312.234 312.23)">
<stop stop-color="#737373"/>
<stop offset="1" stop-color="#D9D9D9" stop-opacity="0"/>
</radialGradient>
<clipPath id="clip0_2027_8892">
<rect width="530.944" height="270.519" fill="white" transform="matrix(-1 0 0 1 530.944 0)"/>
</clipPath>
</defs>
</svg>
