<svg width="24" height="24" viewBox="0 0 24 24" fill="none" xmlns="http://www.w3.org/2000/svg">
<rect width="24" height="24" rx="12" fill="white"/>
<path d="M11.9999 21.6801C11.6759 21.6828 11.3575 21.5958 11.0799 21.4286L7.61136 19.4001C6.31285 18.6739 5.22906 17.6178 4.46951 16.3385C3.70996 15.0592 3.30158 13.6021 3.28564 12.1144V6.5715C3.2858 6.19798 3.40033 5.83347 3.61385 5.52699C3.82736 5.22052 4.1296 4.98678 4.47993 4.85721L11.3714 2.32579C11.7772 2.17721 12.2226 2.17721 12.6285 2.32579L19.5199 4.85721C19.8703 4.98678 20.1725 5.22052 20.386 5.52699C20.5995 5.83347 20.7141 6.19798 20.7142 6.5715V12.1144C20.6983 13.6021 20.2899 15.0592 19.5304 16.3385C18.7708 17.6178 17.687 18.6739 16.3885 19.4001L12.9199 21.4286C12.6424 21.5958 12.3239 21.6828 11.9999 21.6801ZM11.9999 3.64579C11.9546 3.63753 11.9081 3.63753 11.8628 3.64579L4.97136 6.18864C4.89373 6.21739 4.82712 6.26984 4.78097 6.33855C4.73482 6.40727 4.71146 6.48877 4.71422 6.5715V12.1144C4.73079 13.3522 5.07402 14.5638 5.70918 15.6264C6.34435 16.689 7.24891 17.565 8.33136 18.1658L11.7999 20.2001C11.8613 20.2336 11.93 20.2511 11.9999 20.2511C12.0698 20.2511 12.1386 20.2336 12.1999 20.2001L15.6685 18.1658C16.7509 17.565 17.6555 16.689 18.2907 15.6264C18.9258 14.5638 19.2691 13.3522 19.2856 12.1144V6.5715C19.286 6.4907 19.2615 6.41174 19.2155 6.34531C19.1695 6.27887 19.1043 6.22818 19.0285 6.20007L12.1371 3.66864C12.0931 3.65272 12.0467 3.64497 11.9999 3.64579Z" fill="#171717"/>
<path d="M11.3714 14.7715C11.2028 14.7704 11.0396 14.7119 10.9086 14.6058L8.46856 12.5486C8.32307 12.4266 8.232 12.2518 8.21539 12.0627C8.19878 11.8735 8.25799 11.6856 8.37999 11.5401C8.50199 11.3946 8.67679 11.3035 8.86593 11.2869C9.05507 11.2703 9.24307 11.3295 9.38856 11.4515L11.3028 13.0629L14.5714 9.46292C14.6987 9.32198 14.8768 9.23738 15.0665 9.22773C15.2562 9.21809 15.4419 9.28419 15.5828 9.41149C15.7238 9.53879 15.8084 9.71687 15.818 9.90655C15.8277 10.0962 15.7616 10.282 15.6343 10.4229L11.9314 14.5372C11.8605 14.6144 11.7738 14.6753 11.6771 14.7157C11.5804 14.7562 11.4761 14.7752 11.3714 14.7715Z" fill="#171717"/>
</svg>
