<svg width="32" height="32" viewBox="0 0 32 32" fill="none" xmlns="http://www.w3.org/2000/svg">
<g clip-path="url(#clip0_2027_7985)">
<g clip-path="url(#clip1_2027_7985)">
<path d="M13.5 28.4998V18.4998M13.5 18.4998L3.8125 12.4373M13.5 18.4998L28.2125 9.91229M27.4 8.99982L19.8375 3.92482C19.4394 3.65441 18.9716 3.50467 18.4905 3.49358C18.0093 3.4825 17.5352 3.61053 17.125 3.86232L4.6875 11.5123C4.3249 11.736 4.02547 12.0486 3.81764 12.4205C3.60981 12.7924 3.50047 13.2113 3.5 13.6373V20.9123C3.49939 21.3218 3.59937 21.7252 3.79118 22.087C3.98298 22.4488 4.26073 22.758 4.6 22.9873L12.1625 28.0748C12.5606 28.3452 13.0284 28.495 13.5095 28.5061C13.9907 28.5171 14.4648 28.3891 14.875 28.1373L27.3125 20.4873C27.6751 20.2637 27.9745 19.951 28.1824 19.5791C28.3902 19.2072 28.4995 18.7884 28.5 18.3623V11.0748C28.5006 10.6653 28.4006 10.2619 28.2088 9.90011C28.017 9.5383 27.7393 9.22914 27.4 8.99982Z" stroke="#585CE4" stroke-width="2.2" stroke-linecap="round" stroke-linejoin="round"/>
</g>
</g>
<defs>
<clipPath id="clip0_2027_7985">
<rect width="32" height="32" fill="white"/>
</clipPath>
<clipPath id="clip1_2027_7985">
<rect width="32" height="32" fill="white" transform="translate(0 -0.0136719)"/>
</clipPath>
</defs>
</svg>
