<svg width="40" height="40" viewBox="0 0 40 40" fill="none" xmlns="http://www.w3.org/2000/svg">
<rect width="40" height="40" rx="20" fill="white"/>
<path d="M29.5243 15.1151C29.5338 15.3261 29.5386 15.538 29.5386 15.7509C29.5386 22.2451 24.5951 29.7331 15.557 29.7331C12.7816 29.7331 10.1982 28.9194 8.02344 27.5251C8.40837 27.5707 8.79903 27.594 9.19587 27.594C11.4984 27.594 13.617 26.8084 15.2994 25.49C13.1485 25.4506 11.334 24.0297 10.7086 22.0773C11.009 22.1349 11.3165 22.1657 11.6334 22.1657C12.0811 22.1657 12.5154 22.1054 12.928 21.9932C10.6801 21.5417 8.98578 19.5557 8.98578 17.1747C8.98578 17.1538 8.98578 17.1334 8.9863 17.1129C9.64878 17.4808 10.4063 17.7018 11.2123 17.7274C9.89352 16.8464 9.02619 15.3422 9.02619 13.637C9.02619 12.7365 9.26806 11.8924 9.69148 11.1667C12.1152 14.1398 15.7356 16.0959 19.8199 16.3012C19.7362 15.9414 19.6925 15.5665 19.6925 15.1811C19.6925 12.4674 21.8928 10.2671 24.6065 10.2671C26.0208 10.2671 27.2973 10.864 28.1936 11.8187C29.3133 11.5987 30.3645 11.1895 31.314 10.6263C30.9471 11.7741 30.1686 12.7369 29.1536 13.3452C30.1477 13.2264 31.0954 12.9622 31.9765 12.5715C31.3178 13.5567 30.4843 14.4221 29.5243 15.1151Z" fill="#000"/>
</svg>
