<svg width="32" height="32" viewBox="0 0 32 32" fill="none" xmlns="http://www.w3.org/2000/svg">
<g clip-path="url(#clip0_2027_7971)">
<path d="M3.5 9.75L9.0125 4.2375C9.24507 4.00354 9.52165 3.81792 9.82629 3.69135C10.1309 3.56477 10.4576 3.49974 10.7875 3.5H21.2125C21.5424 3.49974 21.8691 3.56477 22.1737 3.69135C22.4784 3.81792 22.7549 4.00354 22.9875 4.2375L28.5 9.75M3.5 9.75H28.5M3.5 9.75V13.5C3.5 14.163 3.76339 14.7989 4.23223 15.2678C4.70107 15.7366 5.33696 16 6 16M28.5 9.75V13.5C28.5 14.163 28.2366 14.7989 27.7678 15.2678C27.2989 15.7366 26.663 16 26 16M6 16V26C6 26.663 6.26339 27.2989 6.73223 27.7678C7.20107 28.2366 7.83696 28.5 8.5 28.5H23.5C24.163 28.5 24.7989 28.2366 25.2678 27.7678C25.7366 27.2989 26 26.663 26 26V16M6 16C6.73033 15.9598 7.42784 15.6834 7.9875 15.2125C8.13665 15.1047 8.31598 15.0467 8.5 15.0467C8.68402 15.0467 8.86335 15.1047 9.0125 15.2125C9.57216 15.6834 10.2697 15.9598 11 16C11.7303 15.9598 12.4278 15.6834 12.9875 15.2125C13.1366 15.1047 13.316 15.0467 13.5 15.0467C13.684 15.0467 13.8634 15.1047 14.0125 15.2125C14.5722 15.6834 15.2697 15.9598 16 16C16.7303 15.9598 17.4278 15.6834 17.9875 15.2125C18.1366 15.1047 18.316 15.0467 18.5 15.0467C18.684 15.0467 18.8634 15.1047 19.0125 15.2125C19.5722 15.6834 20.2697 15.9598 21 16C21.7303 15.9598 22.4278 15.6834 22.9875 15.2125C23.1366 15.1047 23.316 15.0467 23.5 15.0467C23.684 15.0467 23.8634 15.1047 24.0125 15.2125C24.5722 15.6834 25.2697 15.9598 26 16M19.75 28.5V23.5C19.75 22.837 19.4866 22.2011 19.0178 21.7322C18.5489 21.2634 17.913 21 17.25 21H14.75C14.087 21 13.4511 21.2634 12.9822 21.7322C12.5134 22.2011 12.25 22.837 12.25 23.5V28.5" stroke="#585CE4" stroke-width="2.2" stroke-linecap="round" stroke-linejoin="round"/>
</g>
<defs>
<clipPath id="clip0_2027_7971">
<rect width="32" height="32" fill="white"/>
</clipPath>
</defs>
</svg>
