<svg width="40" height="40" viewBox="0 0 40 40" fill="none" xmlns="http://www.w3.org/2000/svg">
<rect width="40" height="40" rx="20" fill="white"/>
<g clip-path="url(#clip0_2027_8519)">
<path fill-rule="evenodd" clip-rule="evenodd" d="M17.5861 23.1034V16.3693C19.9768 17.4942 21.8283 18.5809 24.0181 19.7525C22.212 20.7541 19.9768 21.878 17.5861 23.1034ZM30.9092 13.02C30.4968 12.4767 29.794 12.0538 29.0457 11.9138C26.8463 11.4961 13.1252 11.4949 10.927 11.9138C10.3269 12.0263 9.7926 12.2982 9.3336 12.7206C7.39957 14.5157 8.0056 24.1421 8.47178 25.7015C8.66781 26.3764 8.92123 26.8632 9.24038 27.1827C9.65157 27.6052 10.2146 27.896 10.8612 28.0265C12.6721 28.4011 22.0016 28.6105 29.0074 28.0827C29.6529 27.9702 30.2243 27.67 30.6749 27.2296C32.4631 25.4417 32.3412 15.2747 30.9092 13.02Z" fill="#171717"/>
</g>
<defs>
<clipPath id="clip0_2027_8519">
<rect width="24" height="24" fill="white" transform="translate(8 8)"/>
</clipPath>
</defs>
</svg>
