<svg width="149" height="28" viewBox="0 0 149 28" fill="none" xmlns="http://www.w3.org/2000/svg">
<path d="M6.26321 2.25125C6.32431 2.56257 6.4727 2.85935 6.71419 3.09794C7.19427 3.57802 7.9013 3.70022 8.49195 3.45872C8.6898 3.37726 8.87601 3.25796 9.03604 3.09794C9.10878 3.0252 9.16988 2.94664 9.22516 2.86517C9.24262 2.84189 9.25717 2.81571 9.27172 2.78952C9.28917 2.76042 9.31245 2.73133 9.327 2.69932C9.32409 2.69932 9.31827 2.70223 9.31536 2.70514C9.64705 2.0854 9.55976 1.2969 9.03604 0.773178C8.51231 0.249453 7.72673 0.162165 7.10408 0.493858C7.10408 0.490948 7.10699 0.485129 7.1099 0.48222C7.07789 0.499677 7.0517 0.520044 7.0197 0.537502C6.99351 0.55205 6.97024 0.566598 6.94405 0.584055C6.86258 0.639337 6.78402 0.700438 6.71128 0.773178C6.55126 0.933205 6.43196 1.11942 6.35049 1.31727C6.26903 1.51512 6.2312 1.72461 6.2312 1.9341C6.2312 2.03885 6.23993 2.14359 6.2603 2.24834L6.26321 2.25125Z" fill="#585CE4"/>
<path d="M10.27 6.65648L15.3937 11.7803C16.0338 12.4204 17.0755 12.4204 17.7156 11.7803C17.765 11.7308 17.8087 11.6813 17.8494 11.629C17.8465 11.629 17.8407 11.629 17.8378 11.6319C18.347 10.9889 18.312 10.0549 17.7156 9.45841L12.5918 4.33463C12.1234 3.86619 11.4454 3.74399 10.8606 3.9593C10.8606 3.9593 10.8606 3.9593 10.8606 3.95639C10.8548 3.95639 10.8461 3.96221 10.8402 3.96512C10.817 3.97384 10.7937 3.98548 10.7704 3.99421C10.6918 4.02913 10.6133 4.06986 10.5376 4.11641C10.526 4.12514 10.5144 4.13387 10.4998 4.1426C10.4183 4.19788 10.3398 4.26189 10.2641 4.33463C9.94408 4.65469 9.78406 5.07658 9.78406 5.49556C9.78406 5.70505 9.82479 5.91454 9.90335 6.11239C9.98482 6.31024 10.1041 6.49645 10.2641 6.65648H10.27Z" fill="#585CE4"/>
<path d="M16.8196 5.48654C17.1396 5.80659 17.5615 5.96662 17.9805 5.96662C18.19 5.96662 18.3995 5.92589 18.5973 5.84733C18.7952 5.76586 18.9814 5.64657 19.1414 5.48654C19.2142 5.4138 19.2753 5.33524 19.3305 5.25668C19.3509 5.22759 19.3655 5.19849 19.3829 5.16939C19.4004 5.13739 19.4236 5.10829 19.4411 5.07629C19.4382 5.07629 19.4353 5.07629 19.4295 5.0792C19.7495 4.45945 19.6593 3.68551 19.1385 3.16469L16.45 0.476235C15.9321 -0.0416713 15.1553 -0.134778 14.5355 0.185276C14.5355 0.182367 14.5355 0.179457 14.5385 0.173638C14.5064 0.191095 14.4774 0.211462 14.4453 0.23183C14.4162 0.249287 14.3872 0.266745 14.3581 0.284202C14.2766 0.339484 14.198 0.400585 14.1282 0.473325C13.8867 0.714821 13.7383 1.0116 13.6772 1.32001C13.5783 1.83792 13.7267 2.39365 14.1282 2.79517L16.8196 5.48654Z" fill="#585CE4"/>
<path d="M27.8098 14.535C27.8098 14.535 27.8157 14.535 27.8215 14.5379C27.804 14.5059 27.7836 14.4768 27.7633 14.4448C27.7458 14.4157 27.7284 14.3866 27.7109 14.3575C27.6556 14.276 27.5945 14.1975 27.5218 14.1247C26.8817 13.4846 25.84 13.4846 25.1999 14.1247L22.5086 16.8161C22.107 17.2176 21.9587 17.7734 22.0576 18.2913C22.1187 18.6026 22.2671 18.8994 22.5086 19.138C22.5813 19.2107 22.6599 19.2718 22.7384 19.3271C22.7675 19.3474 22.7966 19.362 22.8257 19.3795C22.8577 19.3969 22.8868 19.4202 22.9188 19.4376C22.9188 19.4347 22.9188 19.4318 22.9159 19.426C23.5327 19.7461 24.3096 19.6559 24.8304 19.135L27.5218 16.4437C28.0397 15.9258 28.1328 15.1489 27.8127 14.5292L27.8098 14.535Z" fill="#585CE4"/>
<path d="M15.7619 16.8689C15.823 17.1802 15.9714 17.477 16.2129 17.7156C16.2624 17.765 16.3118 17.8058 16.3642 17.8494C16.3642 17.8465 16.3642 17.8407 16.3613 17.8378C17.0043 18.3469 17.9383 18.312 18.5348 17.7156L23.6585 12.5918C24.127 12.1233 24.2492 11.4454 24.0339 10.8606C24.0339 10.8606 24.0339 10.8606 24.0368 10.8606C24.0368 10.8548 24.031 10.846 24.0281 10.8402C24.0193 10.8169 24.0077 10.7937 23.999 10.7704C23.964 10.6918 23.9233 10.6133 23.8768 10.5376C23.868 10.526 23.8593 10.5143 23.8506 10.4998C23.7953 10.4183 23.7313 10.3398 23.6585 10.2641C23.417 10.0226 23.1203 9.87423 22.8119 9.81313C22.2939 9.7142 21.7382 9.86259 21.3367 10.2641L16.2129 15.3879C15.8114 15.7894 15.663 16.3451 15.7619 16.863V16.8689Z" fill="#585CE4"/>
<path d="M24.8937 9.03321C24.9664 9.10595 25.045 9.16705 25.1264 9.22234C25.1497 9.23979 25.1759 9.25434 25.2021 9.26889C25.2312 9.28635 25.2603 9.30962 25.2923 9.32417C25.2923 9.32126 25.2894 9.31544 25.2865 9.31253C25.9062 9.64423 26.6947 9.55694 27.2184 9.03321C27.7422 8.50949 27.8294 7.7239 27.4978 7.10125C27.5007 7.10125 27.5065 7.10416 27.5094 7.10707C27.4919 7.07506 27.4716 7.04888 27.4541 7.01687C27.4396 6.99069 27.425 6.96741 27.4076 6.94122C27.3523 6.85975 27.2912 6.7812 27.2184 6.70846C26.5783 6.06835 25.5367 6.06835 24.8966 6.70846C24.2565 7.34856 24.2565 8.3902 24.8966 9.0303L24.8937 9.03321Z" fill="#585CE4"/>
<path d="M21.2791 24.8937C20.799 24.4136 20.092 24.2914 19.5013 24.5329C19.3035 24.6144 19.1173 24.7337 18.9572 24.8937C18.8845 24.9664 18.8234 25.045 18.7681 25.1265C18.7507 25.1497 18.7361 25.1759 18.7216 25.2021C18.7041 25.2312 18.6808 25.2603 18.6663 25.2923C18.6692 25.2923 18.675 25.2894 18.6779 25.2865C18.3462 25.9062 18.4335 26.6947 18.9572 27.2185C19.481 27.7422 20.2666 27.8295 20.8892 27.4978C20.8892 27.5007 20.8863 27.5065 20.8834 27.5094C20.9154 27.492 20.9416 27.4716 20.9736 27.4541C20.9998 27.4396 21.0231 27.425 21.0492 27.4076C21.1307 27.3523 21.2093 27.2912 21.282 27.2185C21.9221 26.5784 21.9221 25.5367 21.282 24.8966L21.2791 24.8937Z" fill="#585CE4"/>
<path d="M17.7236 21.3382L12.5998 16.2144C12.3583 15.9729 12.0616 15.8245 11.7531 15.7634C11.5466 15.7227 11.3342 15.7227 11.1247 15.7634C10.8133 15.8245 10.5166 15.9729 10.278 16.2144C10.2285 16.2639 10.1878 16.3133 10.1441 16.3657C10.147 16.3657 10.1529 16.3657 10.1558 16.3628C9.6466 17.0058 9.68152 17.9398 10.278 18.5363L15.4018 23.66C15.8702 24.1285 16.5481 24.2507 17.133 24.0354C17.133 24.0354 17.133 24.0354 17.133 24.0383C17.1388 24.0383 17.1475 24.0325 17.1533 24.0295C17.1766 24.0208 17.1999 24.0092 17.2232 24.0005C17.3017 23.9655 17.3803 23.9248 17.4559 23.8782C17.4676 23.8695 17.4792 23.8608 17.4937 23.8521C17.5752 23.7968 17.6538 23.7328 17.7294 23.66C17.9709 23.4185 18.1193 23.1218 18.1804 22.8133C18.2415 22.502 18.2095 22.1791 18.0902 21.8823C18.0087 21.6844 17.8895 21.4982 17.7294 21.3382H17.7236Z" fill="#585CE4"/>
<path d="M11.1741 22.5074C10.7726 22.1059 10.2169 21.9575 9.69899 22.0565C9.38766 22.1176 9.09088 22.2659 8.8523 22.5074C8.77956 22.5802 8.71846 22.6587 8.66317 22.7402C8.64281 22.7693 8.62826 22.7984 8.6108 22.8275C8.59334 22.8595 8.57007 22.8886 8.55261 22.9206C8.55552 22.9206 8.55843 22.9206 8.56425 22.9177C8.24419 23.5345 8.33439 24.3114 8.85521 24.8322L11.5466 27.5236C12.0645 28.0415 12.8413 28.1346 13.4611 27.8145C13.4611 27.8174 13.4611 27.8203 13.4582 27.8262C13.4902 27.8087 13.5193 27.7883 13.5513 27.768C13.5804 27.7505 13.6095 27.7331 13.6386 27.7156C13.72 27.6603 13.7986 27.5992 13.8713 27.5265C14.5114 26.8864 14.5114 25.8447 13.8713 25.2046L11.18 22.5133L11.1741 22.5074Z" fill="#585CE4"/>
<path d="M3.54781 19.8074C3.48671 19.4961 3.33832 19.1993 3.09683 18.9607C3.02409 18.888 2.94553 18.8269 2.86406 18.7716C2.84078 18.7541 2.8146 18.7396 2.78841 18.725C2.75931 18.7076 2.73022 18.6843 2.69821 18.6697C2.69821 18.6726 2.70112 18.6785 2.70403 18.6814C2.08429 18.3497 1.29579 18.437 0.772068 18.9607C0.248343 19.4844 0.161055 20.27 0.492748 20.8927C0.489838 20.8927 0.484019 20.8897 0.48111 20.8868C0.498567 20.9188 0.518934 20.945 0.536392 20.977C0.55094 21.0032 0.565487 21.0265 0.582945 21.0527C0.638227 21.1342 0.699328 21.2127 0.772068 21.2855C1.41218 21.9256 2.45381 21.9256 3.09392 21.2855C3.41397 20.9654 3.574 20.5435 3.574 20.1245C3.574 20.0198 3.56527 19.915 3.5449 19.8103L3.54781 19.8074Z" fill="#585CE4"/>
<path d="M12.141 12.0563C12.2225 11.8585 12.2603 11.649 12.2603 11.4395C12.2603 11.3347 12.2516 11.23 12.2312 11.1253C12.1701 10.8139 12.0218 10.5172 11.7803 10.2786C11.7308 10.2291 11.6813 10.1884 11.629 10.1447C11.629 10.1476 11.629 10.1535 11.6319 10.1564C10.9889 9.64719 10.0549 9.6821 9.45841 10.2786L4.33464 15.4023C3.86619 15.8708 3.74399 16.5487 3.9593 17.1335C3.9593 17.1335 3.9593 17.1335 3.95639 17.1335C3.95639 17.1394 3.96221 17.1481 3.96512 17.1539C3.97385 17.1772 3.98549 17.2005 3.99422 17.2237C4.02913 17.3023 4.06986 17.3809 4.11642 17.4565C4.12515 17.4681 4.13388 17.4798 4.1426 17.4914C4.19789 17.5729 4.2619 17.6515 4.33464 17.7271C4.97474 18.3672 6.01638 18.3672 6.65648 17.7271L11.7803 12.6033C11.9403 12.4433 12.0596 12.2571 12.141 12.0592V12.0563Z" fill="#585CE4"/>
<path d="M0.23183 13.546C0.249287 13.5751 0.266745 13.6042 0.284202 13.6333C0.339484 13.7147 0.400585 13.7933 0.473325 13.866C0.71482 14.1075 1.0116 14.2559 1.32001 14.317C1.42476 14.3374 1.5295 14.3461 1.63425 14.3461C1.84374 14.3461 2.05323 14.3054 2.25108 14.2268C2.44893 14.1454 2.63515 14.0261 2.79517 13.866L5.48654 11.1747C6.12665 10.5346 6.12665 9.49294 5.48654 8.85283C5.4138 8.78009 5.33524 8.71899 5.25377 8.6637C5.22467 8.64334 5.19558 8.62879 5.16648 8.61133C5.13448 8.59387 5.10538 8.5706 5.07338 8.55314C5.07338 8.55605 5.07338 8.55896 5.07629 8.56478C4.45946 8.24472 3.6826 8.33492 3.16178 8.85574L0.476235 11.5442C-0.0416713 12.0621 -0.134778 12.839 0.185276 13.4587C0.182367 13.4587 0.179457 13.4587 0.173638 13.4558C0.191095 13.4878 0.211462 13.5169 0.23183 13.5489V13.546Z" fill="#585CE4"/>
<path d="M37.398 21.4999V7.0999H39.288L44.508 17.9299L49.698 7.0999H51.608V21.4899H49.628V11.6399L44.978 21.4999H44.028L39.368 11.6399V21.4999H37.398ZM57.4598 21.7999C56.6598 21.7999 55.9898 21.6532 55.4498 21.3599C54.9098 21.0599 54.4998 20.6666 54.2198 20.1799C53.9464 19.6866 53.8098 19.1466 53.8098 18.5599C53.8098 18.0132 53.9064 17.5332 54.0998 17.1199C54.2931 16.7066 54.5798 16.3566 54.9598 16.0699C55.3398 15.7766 55.8064 15.5399 56.3598 15.3599C56.8398 15.2199 57.3831 15.0966 57.9898 14.9899C58.5964 14.8832 59.2331 14.7832 59.8998 14.6899C60.5731 14.5966 61.2398 14.5032 61.8998 14.4099L61.1398 14.8299C61.1531 13.9832 60.9731 13.3566 60.5998 12.9499C60.2331 12.5366 59.5998 12.3299 58.6998 12.3299C58.1331 12.3299 57.6131 12.4632 57.1398 12.7299C56.6664 12.9899 56.3364 13.4232 56.1498 14.0299L54.1998 13.4299C54.4664 12.5032 54.9731 11.7666 55.7198 11.2199C56.4731 10.6732 57.4731 10.3999 58.7198 10.3999C59.6864 10.3999 60.5264 10.5666 61.2398 10.8999C61.9598 11.2266 62.4864 11.7466 62.8198 12.4599C62.9931 12.8132 63.0998 13.1866 63.1398 13.5799C63.1798 13.9732 63.1998 14.3966 63.1998 14.8499V21.4999H61.3498V19.0299L61.7098 19.3499C61.2631 20.1766 60.6931 20.7932 59.9998 21.1999C59.3131 21.5999 58.4664 21.7999 57.4598 21.7999ZM57.8298 20.0899C58.4231 20.0899 58.9331 19.9866 59.3598 19.7799C59.7864 19.5666 60.1298 19.2966 60.3898 18.9699C60.6498 18.6432 60.8198 18.3032 60.8998 17.9499C61.0131 17.6299 61.0764 17.2699 61.0898 16.8699C61.1098 16.4699 61.1198 16.1499 61.1198 15.9099L61.7998 16.1599C61.1398 16.2599 60.5398 16.3499 59.9998 16.4299C59.4598 16.5099 58.9698 16.5899 58.5298 16.6699C58.0964 16.7432 57.7098 16.8332 57.3698 16.9399C57.0831 17.0399 56.8264 17.1599 56.5998 17.2999C56.3798 17.4399 56.2031 17.6099 56.0698 17.8099C55.9431 18.0099 55.8798 18.2532 55.8798 18.5399C55.8798 18.8199 55.9498 19.0799 56.0898 19.3199C56.2298 19.5532 56.4431 19.7399 56.7298 19.8799C57.0164 20.0199 57.3831 20.0899 57.8298 20.0899ZM64.5965 21.4999L68.6365 16.0399L64.6865 10.6999H67.1665L69.8565 14.4099L72.5165 10.6999H74.9965L71.0465 16.0399L75.0965 21.4999H72.6065L69.8565 17.6699L67.0865 21.4999H64.5965ZM79.4196 21.4999L75.4996 10.6999H77.6096L80.4796 18.8799L83.3496 10.6999H85.4596L81.5396 21.4999H79.4196ZM91.6607 21.7999C90.5874 21.7999 89.644 21.5666 88.8307 21.0999C88.024 20.6266 87.394 19.9699 86.9407 19.1299C86.494 18.2832 86.2707 17.3032 86.2707 16.1899C86.2707 15.0099 86.4907 13.9866 86.9307 13.1199C87.3774 12.2532 87.9974 11.5832 88.7907 11.1099C89.584 10.6366 90.5074 10.3999 91.5607 10.3999C92.6607 10.3999 93.5974 10.6566 94.3707 11.1699C95.144 11.6766 95.7207 12.3999 96.1007 13.3399C96.4874 14.2799 96.6407 15.3966 96.5607 16.6899H94.4707V15.9299C94.4574 14.6766 94.2174 13.7499 93.7507 13.1499C93.2907 12.5499 92.5874 12.2499 91.6407 12.2499C90.594 12.2499 89.8074 12.5799 89.2807 13.2399C88.754 13.8999 88.4907 14.8532 88.4907 16.0999C88.4907 17.2866 88.754 18.2066 89.2807 18.8599C89.8074 19.5066 90.5674 19.8299 91.5607 19.8299C92.214 19.8299 92.7774 19.6832 93.2507 19.3899C93.7307 19.0899 94.104 18.6632 94.3707 18.1099L96.4207 18.7599C96.0007 19.7266 95.364 20.4766 94.5107 21.0099C93.6574 21.5366 92.7074 21.7999 91.6607 21.7999ZM87.8107 16.6899V15.0599H95.5207V16.6899H87.8107ZM106.091 21.4999V16.1899C106.091 15.7699 106.055 15.3399 105.981 14.8999C105.915 14.4532 105.781 14.0399 105.581 13.6599C105.388 13.2799 105.111 12.9732 104.751 12.7399C104.398 12.5066 103.935 12.3899 103.361 12.3899C102.988 12.3899 102.635 12.4532 102.301 12.5799C101.968 12.6999 101.675 12.8966 101.421 13.1699C101.175 13.4432 100.978 13.8032 100.831 14.2499C100.691 14.6966 100.621 15.2399 100.621 15.8799L99.3213 15.3899C99.3213 14.4099 99.5047 13.5466 99.8713 12.7999C100.238 12.0466 100.765 11.4599 101.451 11.0399C102.138 10.6199 102.968 10.4099 103.941 10.4099C104.688 10.4099 105.315 10.5299 105.821 10.7699C106.328 11.0099 106.738 11.3266 107.051 11.7199C107.371 12.1066 107.615 12.5299 107.781 12.9899C107.948 13.4499 108.061 13.8999 108.121 14.3399C108.181 14.7799 108.211 15.1666 108.211 15.4999V21.4999H106.091ZM98.5013 21.4999V10.6999H100.371V13.8199H100.621V21.4999H98.5013ZM116.996 21.4999C116.316 21.6332 115.649 21.6899 114.996 21.6699C114.343 21.6499 113.759 21.5232 113.246 21.2899C112.733 21.0566 112.346 20.6899 112.086 20.1899C111.853 19.7432 111.726 19.2899 111.706 18.8299C111.693 18.3632 111.686 17.8366 111.686 17.2499V7.6999H113.786V17.1499C113.786 17.5832 113.789 17.9599 113.796 18.2799C113.809 18.5999 113.879 18.8699 114.006 19.0899C114.246 19.5032 114.626 19.7399 115.146 19.7999C115.673 19.8532 116.289 19.8299 116.996 19.7299V21.4999ZM109.616 12.3799V10.6999H116.996V12.3799H109.616ZM123.475 21.7999C122.395 21.7999 121.458 21.5566 120.665 21.0699C119.871 20.5832 119.258 19.9132 118.825 19.0599C118.398 18.1999 118.185 17.2099 118.185 16.0899C118.185 14.9632 118.405 13.9732 118.845 13.1199C119.285 12.2599 119.901 11.5932 120.695 11.1199C121.488 10.6399 122.415 10.3999 123.475 10.3999C124.555 10.3999 125.491 10.6432 126.285 11.1299C127.078 11.6166 127.691 12.2866 128.125 13.1399C128.558 13.9932 128.775 14.9766 128.775 16.0899C128.775 17.2166 128.555 18.2099 128.115 19.0699C127.681 19.9232 127.068 20.5932 126.275 21.0799C125.481 21.5599 124.548 21.7999 123.475 21.7999ZM123.475 19.8299C124.508 19.8299 125.278 19.4832 125.785 18.7899C126.298 18.0899 126.555 17.1899 126.555 16.0899C126.555 14.9632 126.295 14.0632 125.775 13.3899C125.261 12.7099 124.495 12.3699 123.475 12.3699C122.775 12.3699 122.198 12.5299 121.745 12.8499C121.291 13.1632 120.955 13.5999 120.735 14.1599C120.515 14.7132 120.405 15.3566 120.405 16.0899C120.405 17.2232 120.665 18.1299 121.185 18.8099C121.705 19.4899 122.468 19.8299 123.475 19.8299ZM130.972 21.4999V10.6999H132.832V13.3199L132.572 12.9799C132.706 12.6332 132.879 12.3166 133.092 12.0299C133.306 11.7366 133.552 11.4966 133.832 11.3099C134.106 11.1099 134.409 10.9566 134.742 10.8499C135.082 10.7366 135.429 10.6699 135.782 10.6499C136.136 10.6232 136.476 10.6399 136.802 10.6999V12.6599C136.449 12.5666 136.056 12.5399 135.622 12.5799C135.196 12.6199 134.802 12.7566 134.442 12.9899C134.102 13.2099 133.832 13.4766 133.632 13.7899C133.439 14.1032 133.299 14.4532 133.212 14.8399C133.126 15.2199 133.082 15.6232 133.082 16.0499V21.4999H130.972ZM139.893 26.2999L141.983 20.6099L142.013 22.2899L137.303 10.6999H139.483L143.003 19.6499H142.363L145.723 10.6999H147.843L141.883 26.2999H139.893Z" fill="white"/>
</svg>
